<svg id="svg" version="1.1" xmlns="http://www.w3.org/2000/svg" xmlns:xlink="http://www.w3.org/1999/xlink" width="400" height="400" viewBox="0, 0, 400,400"><g id="svgg"><path id="path0" d="M170.740 114.549 C 170.638 115.827,170.735 116.247,171.100 116.106 C 171.668 115.888,171.799 112.800,171.240 112.800 C 171.042 112.800,170.817 113.587,170.740 114.549 M148.667 113.867 C 148.257 114.277,148.351 115.922,148.800 116.200 C 149.038 116.347,149.200 115.871,149.200 115.024 C 149.200 113.562,149.128 113.405,148.667 113.867 M153.867 127.867 C 153.741 127.992,153.908 128.365,154.238 128.695 C 154.568 129.025,154.941 129.192,155.067 129.067 C 155.192 128.941,155.025 128.568,154.695 128.238 C 154.365 127.908,153.992 127.741,153.867 127.867 M159.494 132.436 C 159.776 133.516,160.400 133.812,160.400 132.866 C 160.400 132.437,160.150 131.990,159.845 131.873 C 159.455 131.723,159.351 131.890,159.494 132.436 M48.489 141.188 C 36.532 145.491,22.431 169.865,17.588 194.600 C 16.461 200.355,15.881 200.782,9.170 200.794 C 5.358 200.801,4.000 201.557,4.000 203.672 C 4.000 206.397,6.840 207.741,12.152 207.529 C 14.438 207.438,15.374 207.536,15.314 207.859 C 15.266 208.111,15.046 210.451,14.824 213.059 C 14.602 215.666,14.219 219.510,13.973 221.600 C 13.383 226.611,13.626 229.130,14.793 230.075 C 17.028 231.885,20.728 229.779,20.271 226.958 C 19.926 224.831,22.611 205.676,23.443 204.330 C 24.473 202.664,45.095 195.735,46.083 196.723 C 46.339 196.979,46.262 198.621,45.862 201.458 C 43.120 220.854,43.111 232.145,45.826 244.535 C 50.069 263.899,66.034 282.829,70.628 273.945 C 71.579 272.106,71.083 271.007,67.775 267.625 C 54.911 254.474,50.892 237.155,53.984 208.200 C 55.288 195.989,55.341 195.792,57.235 196.208 C 61.483 197.141,62.599 192.034,58.596 189.972 C 56.283 188.780,56.355 189.679,57.842 180.600 C 59.851 168.338,60.795 160.112,60.783 155.000 C 60.753 143.077,56.505 138.304,48.489 141.188 M53.190 148.782 C 54.623 151.458,53.747 159.293,49.854 178.616 C 48.431 185.679,47.591 189.020,47.188 189.221 C 46.865 189.382,44.890 189.911,42.800 190.396 C 37.419 191.645,33.931 192.701,29.873 194.309 C 25.188 196.164,25.123 196.071,26.932 190.063 C 33.290 168.950,49.959 142.743,53.190 148.782 M65.067 150.667 C 64.669 151.065,64.745 152.000,65.175 152.000 C 65.381 152.000,65.523 151.640,65.490 151.200 C 65.422 150.296,65.429 150.305,65.067 150.667 M176.006 165.100 C 176.002 173.704,176.141 178.400,176.400 178.400 C 176.934 178.400,176.934 153.226,176.400 152.400 C 176.145 152.006,176.010 156.365,176.006 165.100 M48.534 158.227 C 48.402 158.572,48.498 159.058,48.747 159.307 C 49.084 159.644,49.200 159.484,49.200 158.680 C 49.200 157.477,48.901 157.273,48.534 158.227 M64.800 159.200 C 64.800 159.640,64.942 160.000,65.115 160.000 C 65.288 160.000,65.457 159.640,65.490 159.200 C 65.523 158.760,65.381 158.400,65.175 158.400 C 64.969 158.400,64.800 158.760,64.800 159.200 M189.549 161.561 C 188.442 162.457,188.098 167.479,188.028 183.800 C 188.006 188.860,187.849 193.218,187.680 193.484 C 187.445 193.853,183.236 193.949,169.986 193.884 L 152.600 193.800 152.400 178.865 L 152.200 163.930 151.078 162.965 C 149.776 161.846,149.184 161.781,147.629 162.585 C 145.907 163.476,145.891 163.604,145.637 179.000 L 145.400 193.400 140.457 193.610 C 135.057 193.840,133.600 194.560,133.600 197.000 C 133.600 199.410,135.106 200.187,140.065 200.337 C 146.143 200.520,145.566 198.628,145.305 217.523 C 145.037 236.792,145.349 238.222,149.493 236.777 C 151.808 235.970,151.790 236.114,151.916 217.737 C 152.018 202.986,152.110 200.843,152.649 200.637 C 152.988 200.506,161.016 200.520,170.489 200.666 L 187.713 200.932 187.421 219.249 L 187.129 237.565 188.146 238.583 C 189.800 240.236,192.012 239.909,193.079 237.852 C 193.636 236.777,193.763 234.145,193.975 219.200 C 194.110 209.630,194.362 201.575,194.534 201.300 C 194.768 200.926,196.921 200.800,203.050 200.800 C 212.691 200.800,213.954 200.417,213.987 197.482 C 214.017 194.845,213.108 194.562,203.632 194.257 C 198.937 194.106,194.949 193.892,194.769 193.781 C 194.589 193.670,194.552 186.651,194.685 178.183 L 194.928 162.788 193.994 161.794 C 192.852 160.578,190.890 160.475,189.549 161.561 M198.800 162.153 C 198.800 162.483,198.980 162.864,199.200 163.000 C 199.420 163.136,199.600 162.977,199.600 162.647 C 199.600 162.317,199.420 161.936,199.200 161.800 C 198.980 161.664,198.800 161.823,198.800 162.153 M183.634 167.400 C 183.559 169.600,183.455 171.817,183.402 172.327 C 183.346 172.877,183.453 173.107,183.667 172.893 C 183.865 172.695,183.970 170.478,183.899 167.966 L 183.771 163.400 183.634 167.400 M276.400 165.960 C 271.445 167.062,267.176 171.258,262.420 179.700 C 260.500 183.107,260.325 182.749,260.637 176.054 C 261.009 168.068,260.045 165.890,256.703 167.161 C 254.602 167.960,254.509 168.515,253.181 188.200 C 252.642 196.194,252.650 217.122,253.194 221.400 C 255.304 237.987,258.497 244.623,262.263 240.244 C 263.451 238.864,263.440 237.792,262.192 233.487 C 259.364 223.735,258.172 207.975,260.239 207.680 C 260.934 207.581,261.511 208.337,263.595 212.080 C 283.113 247.137,309.314 260.685,328.017 245.392 C 335.625 239.171,342.736 225.100,339.771 222.134 C 337.756 220.120,335.188 221.432,333.771 225.200 C 322.327 255.627,291.961 248.486,270.051 210.217 C 267.500 205.761,267.467 206.087,270.716 203.717 C 288.142 191.002,292.450 162.389,276.400 165.960 M320.400 166.000 C 319.945 166.294,320.114 166.389,321.100 166.394 C 321.815 166.397,322.400 166.220,322.400 166.000 C 322.400 165.492,321.186 165.492,320.400 166.000 M324.500 166.276 C 324.885 166.376,325.515 166.376,325.900 166.276 C 326.285 166.175,325.970 166.093,325.200 166.093 C 324.430 166.093,324.115 166.175,324.500 166.276 M264.806 168.100 C 264.811 168.828,264.886 168.885,265.200 168.400 C 265.701 167.624,265.701 167.200,265.200 167.200 C 264.980 167.200,264.803 167.605,264.806 168.100 M46.692 170.642 C 46.531 170.802,46.400 171.209,46.400 171.547 C 46.400 171.997,46.518 172.042,46.845 171.715 C 47.090 171.470,47.221 171.063,47.137 170.810 C 47.052 170.557,46.852 170.481,46.692 170.642 M348.923 170.808 C 346.849 171.634,346.695 172.516,347.375 179.665 C 347.717 183.259,348.268 190.070,348.599 194.800 C 349.810 212.069,350.714 219.722,352.544 228.200 C 353.304 231.720,354.134 235.950,354.389 237.600 C 355.646 245.744,357.156 246.948,363.411 244.796 C 382.094 238.368,395.724 216.700,395.741 193.400 C 395.763 162.200,368.170 162.508,357.819 193.824 C 357.023 196.231,356.271 198.470,356.146 198.800 C 355.713 199.949,355.308 197.924,355.025 193.200 C 353.773 172.251,352.943 169.205,348.923 170.808 M317.000 171.422 C 300.523 173.646,301.743 172.739,300.789 183.474 C 298.647 207.599,298.975 212.105,303.228 216.936 C 308.736 223.195,315.694 222.453,324.400 214.678 C 332.469 207.472,333.781 205.381,331.600 203.200 C 329.754 201.354,328.534 201.938,322.332 207.634 C 316.349 213.130,314.340 214.480,312.143 214.480 C 308.516 214.480,306.400 211.325,306.093 205.459 C 305.864 201.083,305.835 201.120,310.000 200.431 C 324.114 198.096,325.914 197.301,325.033 193.789 C 324.470 191.548,322.914 191.379,315.543 192.761 C 308.395 194.102,306.945 194.234,306.722 193.566 C 306.459 192.778,307.653 180.218,308.035 179.758 C 308.240 179.510,309.172 179.195,310.104 179.057 C 317.478 177.968,320.316 177.619,323.800 177.375 C 329.276 176.990,330.400 176.347,330.400 173.596 C 330.400 170.795,326.425 170.150,317.000 171.422 M63.200 172.800 C 63.200 173.547,63.307 173.653,63.680 173.280 C 64.053 172.907,64.053 172.693,63.680 172.320 C 63.307 171.947,63.200 172.053,63.200 172.800 M290.834 175.400 C 290.849 177.779,290.973 178.729,291.200 178.200 C 291.674 177.098,291.674 173.133,291.200 172.400 C 290.935 171.989,290.819 172.937,290.834 175.400 M279.603 173.004 C 280.806 174.453,279.403 181.646,276.981 186.447 C 274.612 191.145,268.404 197.757,264.609 199.626 C 260.505 201.646,260.414 201.248,263.237 193.668 C 268.471 179.613,276.586 169.368,279.603 173.004 M342.267 172.667 C 341.843 173.090,341.957 175.600,342.400 175.600 C 342.620 175.600,342.800 174.880,342.800 174.000 C 342.800 172.365,342.734 172.200,342.267 172.667 M249.378 173.635 C 249.231 173.874,249.310 174.270,249.555 174.515 C 249.882 174.842,250.000 174.726,250.000 174.080 C 250.000 173.114,249.792 172.965,249.378 173.635 M86.922 175.700 C 85.630 177.123,85.598 177.810,86.089 193.622 C 86.713 213.734,86.718 217.692,86.118 217.893 C 84.982 218.274,80.466 210.814,73.486 197.026 C 71.534 193.171,71.487 193.001,71.937 191.320 C 73.042 187.187,70.343 184.484,67.264 186.640 C 66.033 187.502,65.771 188.181,64.043 195.000 C 62.498 201.092,60.661 222.589,61.467 225.146 C 62.262 227.670,63.838 228.746,65.702 228.037 C 67.533 227.341,67.723 226.406,68.261 215.435 C 68.905 202.310,68.907 202.307,72.552 209.457 C 78.379 220.886,83.643 226.800,87.989 226.800 C 93.344 226.800,93.547 225.221,92.592 190.932 L 92.200 176.864 91.230 175.832 C 89.983 174.504,88.061 174.445,86.922 175.700 M198.800 180.424 C 198.800 183.804,198.941 185.560,199.200 185.400 C 199.432 185.257,199.600 183.063,199.600 180.176 C 199.600 177.125,199.445 175.200,199.200 175.200 C 198.954 175.200,198.800 177.208,198.800 180.424 M297.012 176.117 C 296.841 176.512,296.813 176.947,296.951 177.084 C 297.357 177.490,297.684 176.920,297.497 176.131 C 297.332 175.433,297.310 175.432,297.012 176.117 M160.419 182.765 C 160.445 186.521,160.631 189.696,160.833 189.821 C 161.050 189.955,161.200 187.268,161.200 183.247 C 161.200 178.992,161.045 176.351,160.786 176.191 C 160.506 176.018,160.387 178.148,160.419 182.765 M383.274 177.214 C 391.994 179.636,390.833 206.352,381.351 221.462 C 377.416 227.731,375.124 230.170,369.600 233.961 C 362.800 238.629,360.800 239.137,360.800 236.195 C 360.800 235.727,360.440 233.659,360.000 231.600 C 357.772 221.173,361.345 199.629,367.123 188.654 C 371.450 180.436,378.048 175.762,383.274 177.214 M358.000 177.953 C 358.000 178.996,358.616 179.377,358.692 178.380 C 358.723 177.960,358.581 177.512,358.375 177.384 C 358.169 177.257,358.000 177.513,358.000 177.953 M274.643 179.833 C 274.267 180.811,274.349 180.941,275.000 180.400 C 275.665 179.848,275.796 179.200,275.243 179.200 C 275.046 179.200,274.776 179.485,274.643 179.833 M114.914 180.954 C 98.554 186.319,95.578 215.835,110.649 223.254 C 116.744 226.255,124.886 223.266,129.263 216.422 C 131.186 213.414,130.175 210.400,127.243 210.400 C 126.024 210.400,125.871 210.529,122.391 214.480 C 112.777 225.395,102.465 208.475,109.849 193.903 C 113.014 187.657,119.424 185.007,122.766 188.563 C 124.930 190.867,127.960 190.737,128.986 188.298 C 130.893 183.764,121.420 178.821,114.914 180.954 M296.219 180.900 C 296.052 181.285,296.052 181.915,296.219 182.300 C 296.509 182.967,296.532 182.967,296.691 182.300 C 296.974 181.119,296.603 180.019,296.219 180.900 M358.006 182.100 C 358.011 182.828,358.086 182.885,358.400 182.400 C 358.901 181.624,358.901 181.200,358.400 181.200 C 358.180 181.200,358.003 181.605,358.006 182.100 M319.144 182.043 C 318.774 182.277,319.016 182.390,319.900 182.394 C 320.615 182.397,321.200 182.331,321.200 182.247 C 321.200 181.883,319.641 181.728,319.144 182.043 M232.200 182.957 C 225.123 185.184,219.594 192.675,218.123 202.029 C 215.165 220.834,220.097 231.222,230.363 227.812 C 241.329 224.170,251.085 195.205,244.404 186.129 C 241.979 182.836,236.835 181.499,232.200 182.957 M248.625 183.669 C 248.468 184.037,248.547 184.727,248.802 185.203 C 249.435 186.386,249.601 186.071,249.225 184.397 C 248.990 183.345,248.841 183.165,248.625 183.669 M311.534 184.823 C 311.716 186.733,311.807 186.714,312.118 184.700 C 312.278 183.664,312.200 183.200,311.864 183.200 C 311.538 183.200,311.430 183.732,311.534 184.823 M321.000 186.800 C 320.859 187.028,321.204 187.200,321.800 187.200 C 322.396 187.200,322.741 187.028,322.600 186.800 C 322.464 186.580,322.104 186.400,321.800 186.400 C 321.496 186.400,321.136 186.580,321.000 186.800 M156.692 188.642 C 156.531 188.802,156.400 189.209,156.400 189.547 C 156.400 189.997,156.518 190.042,156.845 189.715 C 157.090 189.470,157.221 189.063,157.137 188.810 C 157.052 188.557,156.852 188.481,156.692 188.642 M96.797 192.833 C 96.795 195.125,96.700 197.990,96.586 199.200 C 96.414 201.036,96.453 201.235,96.823 200.400 C 97.254 199.428,97.408 189.275,96.998 188.865 C 96.889 188.756,96.798 190.542,96.797 192.833 M238.599 189.700 C 241.972 192.611,239.969 203.426,233.802 215.597 C 231.879 219.392,228.302 222.404,226.425 221.808 C 222.602 220.595,222.964 204.937,227.019 196.113 C 229.553 190.600,235.697 187.197,238.599 189.700 M268.871 190.035 C 268.581 190.499,268.421 190.955,268.515 191.049 C 268.793 191.326,269.688 190.064,269.537 189.610 C 269.460 189.380,269.160 189.571,268.871 190.035 M131.038 191.960 C 130.431 192.594,130.101 193.215,130.304 193.340 C 130.675 193.570,132.613 191.279,132.306 190.973 C 132.216 190.882,131.645 191.327,131.038 191.960 M216.005 192.009 C 216.501 192.936,216.800 193.024,216.800 192.243 C 216.800 191.936,216.526 191.580,216.191 191.452 C 215.694 191.261,215.659 191.364,216.005 192.009 M81.228 196.261 C 81.190 198.604,81.147 200.629,81.132 200.761 C 81.036 201.615,81.259 202.400,81.600 202.400 C 81.846 202.400,82.000 200.400,82.000 197.200 C 82.000 194.340,81.842 192.000,81.648 192.000 C 81.454 192.000,81.265 193.917,81.228 196.261 M124.800 194.800 C 124.800 195.020,125.250 195.200,125.800 195.200 C 126.350 195.200,126.800 195.020,126.800 194.800 C 126.800 194.580,126.350 194.400,125.800 194.400 C 125.250 194.400,124.800 194.580,124.800 194.800 M235.595 194.800 C 235.278 195.451,235.356 196.804,235.691 196.469 C 235.902 196.258,235.989 195.751,235.884 195.342 C 235.779 194.934,235.649 194.690,235.595 194.800 M329.200 196.467 C 329.200 196.943,329.325 197.208,329.478 197.055 C 329.911 196.623,329.971 195.600,329.565 195.600 C 329.364 195.600,329.200 195.990,329.200 196.467 M294.643 200.233 C 294.245 201.270,294.368 205.933,294.800 206.200 C 295.055 206.357,295.200 205.204,295.200 203.024 C 295.200 199.589,295.094 199.057,294.643 200.233 M344.267 200.667 C 343.857 201.077,343.951 202.722,344.400 203.000 C 344.638 203.147,344.800 202.671,344.800 201.824 C 344.800 200.362,344.728 200.205,344.267 200.667 M277.286 203.424 C 276.783 203.961,276.508 204.400,276.675 204.400 C 276.842 204.400,276.578 204.680,276.089 205.023 C 275.600 205.365,275.202 205.860,275.203 206.123 C 275.207 206.555,276.961 204.869,278.349 203.100 C 279.173 202.049,278.335 202.305,277.286 203.424 M320.400 202.800 C 320.400 203.301,320.824 203.301,321.600 202.800 C 322.085 202.486,322.028 202.411,321.300 202.406 C 320.805 202.403,320.400 202.580,320.400 202.800 M111.600 204.576 C 111.600 205.333,111.738 206.038,111.907 206.143 C 112.076 206.247,112.148 205.628,112.065 204.766 C 111.881 202.832,111.600 202.718,111.600 204.576 M40.667 204.667 C 40.252 205.082,40.353 206.400,40.800 206.400 C 41.020 206.400,41.200 205.950,41.200 205.400 C 41.200 204.353,41.108 204.226,40.667 204.667 M176.400 205.200 C 176.400 205.433,177.733 205.600,179.600 205.600 C 181.360 205.600,182.931 205.613,183.090 205.630 C 183.250 205.647,183.445 205.466,183.523 205.230 C 183.619 204.944,182.447 204.800,180.033 204.800 C 177.878 204.800,176.400 204.963,176.400 205.200 M198.500 205.465 C 197.929 205.696,197.760 215.200,198.327 215.200 C 198.507 215.200,198.700 213.092,198.756 210.516 C 198.811 207.940,198.945 205.690,199.052 205.516 C 199.265 205.171,199.236 205.168,198.500 205.465 M228.400 206.000 C 228.400 206.747,228.507 206.853,228.880 206.480 C 229.253 206.107,229.253 205.893,228.880 205.520 C 228.507 205.147,228.400 205.253,228.400 206.000 M317.400 205.506 C 317.180 205.668,316.735 206.160,316.412 206.600 C 315.978 207.191,316.109 207.146,316.912 206.430 C 317.891 205.558,318.189 205.188,317.900 205.206 C 317.845 205.209,317.620 205.344,317.400 205.506 M345.309 209.600 C 345.309 210.590,345.387 210.995,345.482 210.500 C 345.578 210.005,345.578 209.195,345.482 208.700 C 345.387 208.205,345.309 208.610,345.309 209.600 M39.812 210.517 C 39.641 210.912,39.613 211.347,39.751 211.484 C 40.157 211.890,40.484 211.320,40.297 210.531 C 40.132 209.833,40.110 209.832,39.812 210.517 M97.246 212.276 C 97.221 213.418,97.380 214.464,97.600 214.600 C 98.072 214.892,98.079 214.006,97.623 211.800 L 97.292 210.200 97.246 212.276 M247.997 214.918 L 248.195 219.000 248.313 215.236 C 248.378 213.166,248.290 211.329,248.116 211.154 C 247.942 210.979,247.889 212.673,247.997 214.918 M57.111 217.946 C 57.000 221.437,57.043 224.992,57.208 225.846 C 57.389 226.781,57.526 224.255,57.554 219.500 C 57.609 209.987,57.390 209.216,57.111 217.946 M198.076 224.500 C 198.157 234.032,198.323 233.156,198.494 222.299 C 198.552 218.614,198.465 215.599,198.300 215.599 C 198.135 215.600,198.034 219.605,198.076 224.500 M345.600 216.976 C 345.600 217.293,345.780 217.664,346.000 217.800 C 346.220 217.936,346.400 217.677,346.400 217.224 C 346.400 216.771,346.220 216.400,346.000 216.400 C 345.780 216.400,345.600 216.659,345.600 216.976 M72.123 221.239 C 72.079 223.507,72.207 225.200,72.423 225.200 C 72.864 225.200,72.928 218.420,72.494 217.739 C 72.332 217.486,72.165 219.061,72.123 221.239 M39.067 218.267 C 38.671 218.662,38.755 220.512,39.200 221.200 C 39.480 221.634,39.589 221.274,39.594 219.900 C 39.600 217.971,39.542 217.791,39.067 218.267 M97.500 218.629 C 97.335 218.796,97.200 219.389,97.200 219.947 C 97.200 220.675,97.322 220.838,97.634 220.526 C 97.872 220.288,98.007 219.694,97.934 219.208 C 97.860 218.722,97.665 218.461,97.500 218.629 M9.378 219.235 C 9.231 219.474,9.310 219.870,9.555 220.115 C 9.882 220.442,10.000 220.326,10.000 219.680 C 10.000 218.714,9.792 218.565,9.378 219.235 M161.464 228.665 C 161.096 241.289,161.132 245.911,161.600 246.200 C 161.864 246.363,162.000 241.871,162.000 233.024 C 162.000 225.641,161.939 219.600,161.864 219.600 C 161.789 219.600,161.609 223.679,161.464 228.665 M24.800 222.467 C 24.800 222.943,24.925 223.208,25.078 223.055 C 25.511 222.623,25.571 221.600,25.165 221.600 C 24.964 221.600,24.800 221.990,24.800 222.467 M344.800 222.733 C 344.800 223.210,344.964 223.600,345.165 223.600 C 345.571 223.600,345.511 222.577,345.078 222.145 C 344.925 221.992,344.800 222.257,344.800 222.733 M248.400 223.376 C 248.400 223.693,248.580 224.064,248.800 224.200 C 249.020 224.336,249.200 224.077,249.200 223.624 C 249.200 223.171,249.020 222.800,248.800 222.800 C 248.580 222.800,248.400 223.059,248.400 223.376 M363.200 225.200 C 363.200 226.533,363.378 227.600,363.600 227.600 C 363.822 227.600,364.000 226.533,364.000 225.200 C 364.000 223.867,363.822 222.800,363.600 222.800 C 363.378 222.800,363.200 223.867,363.200 225.200 M8.634 225.300 C 8.458 225.905,8.458 226.895,8.634 227.500 L 8.955 228.600 9.104 227.500 C 9.186 226.895,9.186 225.905,9.104 225.300 L 8.955 224.200 8.634 225.300 M264.800 226.733 C 264.800 227.210,264.964 227.600,265.165 227.600 C 265.571 227.600,265.511 226.577,265.078 226.145 C 264.925 225.992,264.800 226.257,264.800 226.733 M39.043 228.633 C 38.663 229.622,38.758 231.527,39.200 231.800 C 39.447 231.952,39.600 231.271,39.600 230.024 C 39.600 227.919,39.455 227.558,39.043 228.633 M216.800 228.704 C 216.800 228.871,217.164 229.235,217.609 229.513 C 218.359 229.981,218.381 229.959,217.913 229.209 C 217.409 228.403,216.800 228.126,216.800 228.704 M140.400 232.176 C 140.400 233.593,140.580 234.864,140.800 235.000 C 141.052 235.156,141.200 234.204,141.200 232.424 C 141.200 230.808,141.029 229.600,140.800 229.600 C 140.575 229.600,140.400 230.725,140.400 232.176 M57.200 231.200 C 57.200 231.860,57.380 232.400,57.600 232.400 C 57.820 232.400,58.000 231.860,58.000 231.200 C 58.000 230.540,57.820 230.000,57.600 230.000 C 57.380 230.000,57.200 230.540,57.200 231.200 M177.362 243.400 C 177.362 246.920,177.424 248.306,177.498 246.481 C 177.572 244.656,177.572 241.776,177.497 240.081 C 177.422 238.386,177.361 239.880,177.362 243.400 M251.600 238.200 C 251.600 238.530,251.780 238.800,252.000 238.800 C 252.220 238.800,252.400 238.530,252.400 238.200 C 252.400 237.870,252.220 237.600,252.000 237.600 C 251.780 237.600,251.600 237.870,251.600 238.200 M350.108 241.628 C 350.076 242.052,350.219 242.400,350.425 242.400 C 350.880 242.400,350.927 241.325,350.483 241.051 C 350.309 240.944,350.140 241.203,350.108 241.628 M40.400 242.600 C 40.400 242.930,40.580 243.200,40.800 243.200 C 41.020 243.200,41.200 242.930,41.200 242.600 C 41.200 242.270,41.020 242.000,40.800 242.000 C 40.580 242.000,40.400 242.270,40.400 242.600 M259.800 246.000 C 259.664 246.220,259.913 246.400,260.353 246.400 C 260.793 246.400,261.264 246.220,261.400 246.000 C 261.536 245.780,261.287 245.600,260.847 245.600 C 260.407 245.600,259.936 245.780,259.800 246.000 M357.600 250.400 C 357.600 250.620,358.219 250.800,358.976 250.800 C 359.733 250.800,360.464 250.620,360.600 250.400 C 360.749 250.158,360.204 250.000,359.224 250.000 C 358.331 250.000,357.600 250.180,357.600 250.400 M140.454 261.600 C 140.454 263.180,140.507 263.290,140.888 262.500 C 141.200 261.853,141.200 261.347,140.888 260.700 C 140.507 259.910,140.454 260.020,140.454 261.600 M130.000 269.400 C 130.517 269.950,131.006 270.400,131.088 270.400 C 131.421 270.400,129.772 268.424,129.430 268.413 C 129.227 268.406,129.483 268.850,130.000 269.400 M75.200 272.867 C 75.200 273.783,75.297 274.436,75.416 274.318 C 75.801 273.933,75.924 271.200,75.556 271.200 C 75.360 271.200,75.200 271.950,75.200 272.867 M227.600 285.200 C 227.600 285.640,227.780 286.000,228.000 286.000 C 228.220 286.000,228.400 285.640,228.400 285.200 C 228.400 284.760,228.220 284.400,228.000 284.400 C 227.780 284.400,227.600 284.760,227.600 285.200 M161.705 287.876 C 162.077 288.248,162.515 288.418,162.679 288.254 C 162.843 288.091,162.712 287.789,162.388 287.584 C 161.415 286.969,160.982 287.153,161.705 287.876 M163.704 304.237 C 164.111 304.644,166.800 304.760,166.800 304.370 C 166.800 304.166,166.050 304.000,165.133 304.000 C 164.217 304.000,163.573 304.107,163.704 304.237 M168.000 304.225 C 169.403 304.535,171.918 304.590,171.743 304.307 C 171.638 304.138,170.618 304.021,169.476 304.046 C 168.334 304.072,167.670 304.152,168.000 304.225 M172.800 304.370 C 172.800 304.773,175.862 304.672,176.278 304.255 C 176.418 304.115,175.693 304.000,174.667 304.000 C 173.640 304.000,172.800 304.167,172.800 304.370 " stroke="none" fill="#285c9d" fill-rule="evenodd"></path><path id="path1" d="M164.953 100.565 C 151.688 103.784,149.546 122.181,161.765 127.954 L 164.291 129.148 164.536 131.874 C 164.723 133.954,165.400 180.818,165.400 191.655 L 165.400 193.509 168.310 193.772 C 169.910 193.917,171.421 193.911,171.667 193.758 C 172.124 193.476,171.896 153.932,171.340 136.931 L 171.089 129.262 173.725 127.977 C 189.652 120.211,182.039 96.418,164.953 100.565 M171.417 107.552 C 174.473 108.940,176.324 112.212,175.824 115.341 C 174.741 122.111,166.689 124.928,162.213 120.101 C 156.610 114.058,163.890 104.133,171.417 107.552 M165.814 224.300 C 165.946 237.225,166.209 257.782,166.400 269.981 C 166.591 282.181,166.643 292.330,166.517 292.534 C 165.793 293.706,155.817 291.615,149.193 288.903 C 136.937 283.884,124.781 272.623,118.210 260.200 C 116.691 257.328,117.258 257.424,125.156 261.378 C 132.535 265.072,133.520 265.316,135.018 263.818 C 137.945 260.891,136.698 259.697,124.319 253.574 C 108.749 245.872,109.596 245.510,105.546 261.590 C 102.257 274.645,102.323 275.600,106.512 275.600 C 108.501 275.600,109.067 274.699,110.439 269.359 C 112.145 262.712,111.686 262.725,115.954 269.200 C 139.149 304.394,183.596 310.110,212.887 281.666 C 215.486 279.143,217.721 277.188,217.855 277.322 C 217.989 277.456,217.700 279.837,217.213 282.613 C 216.063 289.170,216.607 290.800,219.945 290.800 C 222.242 290.800,222.832 289.643,223.964 282.911 C 224.401 280.320,225.316 274.891,225.999 270.847 C 227.706 260.737,226.506 258.163,221.119 260.378 C 220.613 260.586,218.220 261.379,215.800 262.141 C 199.659 267.223,199.435 267.304,198.318 268.420 C 196.928 269.811,196.907 270.791,198.236 272.369 C 199.620 274.014,200.358 273.966,207.422 271.773 C 214.499 269.576,214.817 269.721,211.479 273.629 C 206.816 279.089,199.324 284.783,192.605 287.975 C 185.404 291.396,173.931 293.983,173.425 292.300 C 173.268 291.781,172.395 223.150,172.363 208.900 L 172.345 200.800 168.960 200.800 L 165.576 200.800 165.814 224.300 " stroke="none" fill="#fbba06" fill-rule="evenodd"></path><path id="path2" d="M164.976 95.638 C 164.853 95.837,164.206 96.000,163.538 96.000 C 162.870 96.000,161.835 96.348,161.237 96.773 C 160.640 97.199,159.669 97.668,159.080 97.816 C 158.491 97.964,157.242 98.786,156.304 99.642 C 155.367 100.499,154.435 101.200,154.234 101.200 C 154.032 101.200,153.976 101.309,154.109 101.442 C 154.242 101.575,153.912 102.091,153.375 102.588 C 152.839 103.085,152.400 103.696,152.400 103.946 C 152.400 104.196,152.265 104.401,152.100 104.403 C 151.694 104.407,150.800 106.386,150.800 107.280 C 150.800 107.676,150.665 108.001,150.500 108.003 C 148.228 108.027,148.972 122.099,151.300 123.133 C 151.465 123.207,151.603 123.837,151.606 124.533 C 151.611 125.498,151.705 125.657,152.000 125.200 C 152.327 124.693,152.389 124.715,152.394 125.337 C 152.397 125.742,152.760 126.531,153.200 127.091 C 153.640 127.650,154.000 127.995,154.000 127.856 C 154.000 127.717,154.918 128.503,156.041 129.602 C 157.163 130.701,158.243 131.623,158.441 131.650 C 158.638 131.678,158.980 131.745,159.200 131.800 C 159.420 131.855,159.780 131.922,160.000 131.950 C 160.261 131.983,160.400 139.625,160.400 153.976 C 160.400 168.196,160.541 176.040,160.800 176.200 C 161.041 176.349,161.200 179.145,161.200 183.247 C 161.200 187.968,161.069 189.966,160.773 189.783 C 160.538 189.638,160.426 189.310,160.524 189.054 C 160.783 188.379,157.521 188.755,157.007 189.459 C 156.729 189.840,156.638 185.751,156.720 176.555 C 156.861 160.833,156.760 160.358,152.861 158.300 C 149.714 156.639,142.800 158.198,142.800 160.569 C 142.800 160.879,142.575 161.224,142.300 161.335 C 141.910 161.492,141.914 161.544,142.316 161.568 C 142.655 161.589,142.553 161.899,142.016 162.475 C 141.230 163.319,141.200 163.825,141.197 176.175 L 141.193 189.000 137.751 189.050 C 135.311 189.086,134.207 189.261,133.960 189.650 C 133.745 189.990,133.610 189.016,133.606 187.100 C 133.603 185.304,133.432 184.000,133.200 184.000 C 132.980 184.000,132.800 183.604,132.800 183.120 C 132.800 182.043,129.435 178.785,127.306 177.801 C 126.478 177.418,125.260 176.860,124.600 176.561 C 123.940 176.262,122.815 175.975,122.100 175.923 C 121.385 175.872,120.800 175.688,120.800 175.515 C 120.800 175.051,116.490 175.131,116.200 175.600 C 116.064 175.820,115.333 176.000,114.576 176.000 C 113.819 176.000,113.200 176.180,113.200 176.400 C 113.200 176.620,112.795 176.804,112.300 176.809 C 111.805 176.814,110.950 177.170,110.400 177.600 C 109.850 178.030,109.209 178.386,108.975 178.391 C 108.421 178.403,102.800 183.618,102.800 184.121 C 102.800 184.333,102.485 184.797,102.100 185.153 C 101.304 185.888,99.904 188.357,98.443 191.600 C 98.195 192.150,97.734 194.465,97.419 196.744 C 97.103 199.023,96.790 200.943,96.723 201.011 C 96.655 201.079,96.651 195.389,96.713 188.367 C 96.790 179.774,96.692 175.600,96.413 175.600 C 96.186 175.600,96.000 175.185,96.000 174.678 C 96.000 173.596,93.582 170.800,92.646 170.800 C 92.291 170.800,92.000 170.620,92.000 170.400 C 92.000 170.171,90.800 170.000,89.200 170.000 C 87.600 170.000,86.400 170.171,86.400 170.400 C 86.400 170.620,86.265 170.769,86.100 170.730 C 85.533 170.598,83.625 171.717,83.836 172.058 C 83.952 172.246,83.767 172.400,83.424 172.400 C 83.021 172.400,82.800 172.763,82.800 173.424 C 82.800 174.004,82.627 174.340,82.400 174.200 C 82.173 174.060,82.000 174.396,82.000 174.976 C 82.000 175.539,81.820 176.000,81.600 176.000 C 81.044 176.000,81.056 191.885,81.612 192.071 C 81.876 192.159,81.984 194.157,81.912 197.604 L 81.800 203.000 80.627 200.600 C 79.982 199.280,79.172 197.981,78.827 197.713 C 78.482 197.445,78.380 197.217,78.600 197.207 C 78.867 197.194,78.867 197.090,78.600 196.894 C 77.957 196.421,77.200 194.875,77.200 194.034 C 77.200 193.607,76.917 192.974,76.571 192.629 C 76.226 192.283,76.136 192.000,76.371 192.000 C 76.635 192.000,76.800 190.924,76.800 189.200 C 76.800 187.496,76.634 186.400,76.376 186.400 C 76.143 186.400,76.047 186.247,76.163 186.060 C 76.584 185.379,73.642 182.000,72.629 182.000 C 72.283 182.000,72.000 181.820,72.000 181.600 C 72.000 181.371,70.800 181.200,69.200 181.200 C 67.600 181.200,66.400 181.371,66.400 181.600 C 66.400 181.820,66.116 182.000,65.769 182.000 C 65.031 182.000,62.000 185.123,62.000 185.882 C 62.000 186.167,61.820 186.400,61.600 186.400 C 61.099 186.400,61.076 185.724,61.566 185.421 C 61.767 185.296,62.059 183.801,62.214 182.097 C 62.369 180.394,62.665 178.788,62.872 178.530 C 63.079 178.271,63.216 177.821,63.177 177.530 C 62.946 175.822,63.250 171.984,63.600 172.200 C 63.851 172.355,64.000 171.463,64.000 169.800 C 64.000 168.137,64.149 167.245,64.400 167.400 C 64.654 167.557,64.800 166.431,64.800 164.304 C 64.800 162.236,64.983 160.777,65.280 160.480 C 65.653 160.107,65.653 160.000,65.280 160.000 C 65.016 160.000,64.800 159.640,64.800 159.200 C 64.800 158.760,64.980 158.400,65.200 158.400 C 65.433 158.400,65.600 157.067,65.600 155.200 C 65.600 153.333,65.433 152.000,65.200 152.000 C 64.980 152.000,64.800 151.719,64.800 151.376 C 64.800 151.033,64.950 150.845,65.133 150.959 C 65.317 151.072,65.467 150.903,65.467 150.582 C 65.467 150.262,65.317 150.000,65.133 150.000 C 64.950 150.000,64.800 148.999,64.800 147.776 C 64.800 146.396,64.648 145.647,64.400 145.800 C 64.176 145.938,64.000 145.630,64.000 145.102 C 64.000 143.759,62.077 140.072,60.734 138.841 C 58.716 136.990,58.444 136.800,57.817 136.800 C 57.478 136.800,57.200 136.620,57.200 136.400 C 57.200 136.180,56.570 136.000,55.800 136.000 C 55.030 136.000,54.400 135.837,54.400 135.638 C 54.400 135.266,51.352 135.367,48.700 135.827 C 47.875 135.970,47.200 136.248,47.200 136.444 C 47.200 136.640,46.928 136.800,46.595 136.800 C 46.036 136.800,45.113 137.193,43.600 138.074 C 43.270 138.266,42.685 138.529,42.300 138.658 C 41.915 138.788,41.600 139.052,41.600 139.247 C 41.600 139.441,41.422 139.600,41.205 139.600 C 40.507 139.600,36.800 142.969,36.800 143.603 C 36.800 143.822,36.524 144.000,36.187 144.000 C 35.851 144.000,35.464 144.288,35.329 144.640 C 35.194 144.992,34.705 145.677,34.242 146.162 C 32.679 147.799,31.600 149.204,31.600 149.603 C 31.600 149.821,31.454 150.000,31.275 150.000 C 31.096 150.000,30.703 150.627,30.402 151.394 C 30.101 152.161,29.770 152.704,29.667 152.600 C 29.563 152.497,29.269 152.814,29.012 153.306 C 27.872 155.486,26.247 158.286,25.554 159.262 C 25.139 159.846,24.800 160.711,24.800 161.185 C 24.800 161.659,24.620 161.936,24.400 161.800 C 24.180 161.664,24.000 161.913,24.000 162.353 C 24.000 162.793,23.831 163.257,23.625 163.384 C 23.419 163.512,22.982 164.155,22.653 164.815 C 22.324 165.474,22.222 165.910,22.427 165.783 C 22.632 165.656,22.800 165.743,22.800 165.976 C 22.800 166.209,22.620 166.400,22.400 166.400 C 22.180 166.400,22.000 166.681,22.000 167.024 C 22.000 167.367,21.820 167.536,21.600 167.400 C 21.380 167.264,21.200 167.513,21.200 167.953 C 21.200 168.393,21.020 168.864,20.800 169.000 C 20.580 169.136,20.400 169.582,20.400 169.990 C 20.400 170.399,20.175 170.824,19.900 170.935 C 19.510 171.092,19.514 171.144,19.916 171.168 C 20.255 171.189,20.153 171.499,19.616 172.075 C 19.167 172.557,18.800 173.247,18.800 173.609 C 18.800 173.971,18.675 174.392,18.522 174.545 C 18.227 174.840,18.111 175.301,17.732 177.700 C 17.601 178.525,17.338 179.200,17.147 179.200 C 16.956 179.200,16.800 179.650,16.800 180.200 C 16.800 180.750,16.620 181.200,16.400 181.200 C 16.180 181.200,16.000 181.841,16.000 182.624 C 16.000 183.471,15.838 183.947,15.600 183.800 C 15.361 183.653,15.200 184.137,15.200 185.000 C 15.200 185.863,15.039 186.347,14.800 186.200 C 14.558 186.051,14.400 186.596,14.400 187.576 C 14.400 188.469,14.220 189.200,14.000 189.200 C 13.780 189.200,13.600 190.100,13.600 191.200 C 13.600 192.398,13.422 193.200,13.156 193.200 C 12.885 193.200,12.776 193.743,12.876 194.600 L 13.039 196.000 8.720 196.000 C 6.107 196.000,4.400 196.158,4.400 196.400 C 4.400 196.620,4.102 196.800,3.738 196.800 C 3.373 196.800,2.367 197.523,1.500 198.407 L -0.075 200.013 0.063 203.926 C 0.203 207.916,1.158 210.000,2.848 210.000 C 3.115 210.000,3.216 210.117,3.073 210.261 C 2.615 210.718,4.836 211.600,6.446 211.600 C 7.335 211.600,8.000 211.793,8.000 212.052 C 8.000 212.346,8.491 212.425,9.400 212.277 C 10.215 212.145,10.800 212.217,10.800 212.449 C 10.800 212.668,10.620 212.736,10.400 212.600 C 10.143 212.441,10.000 213.804,10.000 216.400 C 10.000 218.996,9.857 220.359,9.600 220.200 C 9.341 220.040,9.200 221.729,9.200 224.976 C 9.200 228.059,9.355 230.000,9.600 230.000 C 9.820 230.000,10.000 230.366,10.000 230.813 C 10.000 231.643,11.952 233.798,13.520 234.700 C 14.555 235.295,19.600 235.378,19.600 234.800 C 19.600 234.580,19.968 234.400,20.418 234.400 C 21.283 234.400,23.200 232.743,23.200 231.995 C 23.200 231.752,23.380 231.664,23.600 231.800 C 23.820 231.936,24.000 231.687,24.000 231.247 C 24.000 230.807,24.180 230.336,24.400 230.200 C 24.625 230.061,24.800 228.129,24.800 225.776 C 24.800 223.259,24.959 221.600,25.200 221.600 C 25.433 221.600,25.600 220.267,25.600 218.400 C 25.600 216.533,25.767 215.200,26.000 215.200 C 26.220 215.200,26.400 214.210,26.400 213.000 C 26.400 211.634,26.571 210.800,26.851 210.800 C 27.152 210.800,27.237 210.127,27.108 208.779 C 26.952 207.157,27.024 206.800,27.474 206.973 C 28.055 207.196,31.698 205.681,31.933 205.119 C 32.007 204.943,32.592 204.800,33.233 204.800 C 33.875 204.800,34.400 204.620,34.400 204.400 C 34.400 204.180,34.749 204.000,35.176 204.000 C 35.603 204.000,36.064 203.820,36.200 203.600 C 36.336 203.380,36.797 203.200,37.224 203.200 C 37.651 203.200,38.003 202.975,38.006 202.700 C 38.010 202.367,38.142 202.400,38.400 202.800 C 38.613 203.130,38.791 203.195,38.794 202.945 C 38.797 202.695,39.340 202.412,40.000 202.315 L 41.200 202.139 41.200 204.269 C 41.200 205.441,41.020 206.400,40.800 206.400 C 40.574 206.400,40.400 207.533,40.400 209.000 C 40.400 210.467,40.226 211.600,40.000 211.600 C 39.755 211.600,39.598 213.571,39.594 216.700 C 39.590 220.141,39.462 221.605,39.200 221.200 C 38.936 220.792,38.812 221.942,38.812 224.800 C 38.812 227.658,38.936 228.808,39.200 228.400 C 39.535 227.881,39.892 235.965,39.621 237.940 C 39.580 238.237,39.739 238.362,39.973 238.217 C 40.254 238.043,40.400 238.645,40.400 239.976 C 40.400 241.089,40.580 242.000,40.800 242.000 C 41.022 242.000,41.200 243.067,41.200 244.400 C 41.200 245.733,41.378 246.800,41.600 246.800 C 41.820 246.800,42.000 247.239,42.000 247.776 C 42.000 248.313,42.185 248.867,42.411 249.007 C 42.636 249.146,42.786 249.472,42.744 249.730 C 42.701 249.989,42.823 250.920,43.014 251.800 C 43.205 252.680,43.326 253.535,43.281 253.700 C 43.236 253.865,43.380 254.000,43.600 254.000 C 43.820 254.000,44.000 254.450,44.000 255.000 C 44.000 255.550,44.180 256.000,44.400 256.000 C 44.620 256.000,44.800 256.371,44.800 256.824 C 44.800 257.277,44.980 257.536,45.200 257.400 C 45.433 257.256,45.600 257.663,45.600 258.376 C 45.600 259.049,45.780 259.600,46.000 259.600 C 46.220 259.600,46.400 259.945,46.400 260.367 C 46.400 260.788,46.535 261.193,46.700 261.267 C 46.865 261.340,47.322 262.030,47.716 262.800 C 48.842 265.000,49.420 265.938,50.136 266.729 C 50.501 267.133,50.800 267.634,50.800 267.843 C 50.800 268.052,51.160 268.483,51.600 268.800 C 52.040 269.117,52.400 269.638,52.400 269.957 C 52.400 270.276,53.210 271.313,54.200 272.262 C 55.190 273.210,56.000 274.098,56.000 274.233 C 56.000 274.616,58.676 277.200,59.072 277.200 C 59.265 277.200,59.683 277.560,60.000 278.000 C 60.317 278.440,60.807 278.800,61.088 278.800 C 61.370 278.800,61.600 278.980,61.600 279.200 C 61.600 279.420,62.061 279.600,62.624 279.600 C 63.204 279.600,63.540 279.773,63.400 280.000 C 63.242 280.256,64.529 280.400,66.976 280.400 C 69.259 280.400,70.800 280.239,70.800 280.000 C 70.800 279.780,70.986 279.600,71.213 279.600 C 71.714 279.600,74.007 277.286,74.700 276.080 C 74.975 275.602,75.200 274.308,75.200 273.205 C 75.200 271.912,75.370 271.200,75.680 271.200 C 76.053 271.200,76.053 271.093,75.680 270.720 C 75.416 270.456,75.200 269.866,75.200 269.408 C 75.200 268.951,74.840 268.317,74.400 268.000 C 73.960 267.683,73.600 267.252,73.600 267.042 C 73.600 266.832,72.070 265.157,70.200 263.321 C 68.330 261.484,66.800 259.818,66.800 259.619 C 66.800 259.420,66.575 259.012,66.300 258.713 C 65.263 257.585,62.000 251.406,62.000 250.571 C 62.000 250.231,61.820 250.064,61.600 250.200 C 61.362 250.347,61.200 249.879,61.200 249.047 C 61.200 248.277,61.020 247.536,60.800 247.400 C 60.580 247.264,60.400 246.713,60.400 246.176 C 60.400 245.639,60.220 245.200,60.000 245.200 C 59.780 245.200,59.600 244.660,59.600 244.000 C 59.600 243.310,59.388 242.797,59.100 242.794 C 58.767 242.790,58.800 242.658,59.200 242.400 C 59.600 242.142,59.633 242.010,59.300 242.006 C 58.975 242.002,58.800 241.370,58.800 240.200 C 58.800 239.210,58.620 238.400,58.400 238.400 C 58.169 238.400,58.000 237.144,58.000 235.433 C 58.000 233.562,57.831 232.410,57.542 232.314 C 57.229 232.210,57.176 231.556,57.374 230.232 C 57.664 228.302,57.664 228.302,58.213 229.361 C 58.952 230.785,59.810 231.600,60.571 231.600 C 60.917 231.600,61.200 231.757,61.200 231.948 C 61.200 232.477,65.193 232.904,65.757 232.435 C 66.024 232.214,66.592 232.125,67.021 232.237 C 67.963 232.483,70.362 230.412,71.487 228.382 C 72.136 227.211,72.244 226.250,72.195 222.087 C 72.163 219.385,72.283 217.405,72.462 217.687 C 72.641 217.969,72.791 218.565,72.794 219.011 C 72.799 219.740,73.503 220.722,76.000 223.486 C 76.440 223.973,76.803 224.693,76.806 225.086 C 76.811 225.693,76.870 225.710,77.200 225.200 C 77.520 224.704,77.589 224.741,77.594 225.411 C 77.601 226.330,78.897 227.600,79.828 227.600 C 80.169 227.600,80.336 227.780,80.200 228.000 C 80.064 228.220,80.167 228.400,80.429 228.400 C 80.692 228.400,81.199 228.715,81.557 229.100 C 82.524 230.139,83.861 230.800,84.995 230.800 C 85.548 230.800,86.000 230.980,86.000 231.200 C 86.000 231.420,86.990 231.600,88.200 231.600 C 89.410 231.600,90.400 231.420,90.400 231.200 C 90.400 230.980,90.951 230.800,91.624 230.800 C 92.337 230.800,92.744 230.633,92.600 230.400 C 92.464 230.180,92.561 230.000,92.816 230.000 C 94.925 230.000,98.088 223.483,97.369 220.619 C 97.229 220.059,97.253 219.286,97.422 218.901 C 97.819 218.000,97.887 217.750,97.963 216.900 C 98.045 215.983,98.953 217.093,99.927 219.300 C 100.291 220.125,100.726 220.800,100.894 220.800 C 101.062 220.800,101.200 221.081,101.200 221.424 C 101.200 221.767,101.380 221.936,101.600 221.800 C 101.820 221.664,102.000 221.711,102.000 221.905 C 102.000 222.469,105.588 226.055,105.937 225.839 C 106.112 225.731,106.506 225.992,106.814 226.420 C 107.122 226.847,108.010 227.300,108.787 227.427 C 109.564 227.554,110.560 227.800,111.000 227.973 C 114.113 229.202,118.800 229.699,118.800 228.800 C 118.800 228.580,119.419 228.400,120.176 228.400 C 120.933 228.400,121.651 228.240,121.772 228.045 C 121.893 227.850,122.623 227.572,123.396 227.427 C 124.168 227.282,124.800 226.992,124.800 226.782 C 124.800 226.572,125.160 226.400,125.600 226.400 C 126.040 226.400,126.400 226.220,126.400 226.000 C 126.400 225.780,126.589 225.600,126.820 225.600 C 127.446 225.600,132.284 220.595,132.590 219.632 C 132.735 219.174,133.022 218.800,133.227 218.800 C 133.432 218.800,133.600 218.440,133.600 218.000 C 133.600 217.560,133.780 217.200,134.000 217.200 C 134.220 217.200,134.400 216.660,134.400 216.000 C 134.400 215.340,134.580 214.800,134.800 214.800 C 135.020 214.800,135.200 214.443,135.200 214.006 C 135.200 212.783,134.273 209.600,133.917 209.600 C 133.743 209.600,133.600 209.330,133.600 209.000 C 133.600 208.670,133.455 208.400,133.278 208.400 C 133.101 208.400,132.269 207.770,131.428 207.000 C 129.886 205.588,124.800 204.820,124.800 206.000 C 124.800 206.220,124.485 206.400,124.100 206.400 C 123.404 206.401,121.200 208.046,121.200 208.565 C 121.200 208.714,120.747 209.290,120.192 209.844 C 119.638 210.398,119.289 211.020,119.416 211.226 C 119.543 211.432,119.444 211.600,119.195 211.600 C 118.946 211.600,118.453 211.889,118.100 212.243 C 116.768 213.575,112.800 212.148,112.800 210.338 C 112.800 209.932,112.625 209.600,112.410 209.600 C 112.188 209.600,112.126 209.072,112.265 208.376 C 112.405 207.677,112.293 206.747,112.005 206.209 C 111.688 205.618,111.606 204.767,111.784 203.933 C 111.941 203.200,112.119 201.920,112.179 201.089 C 112.239 200.258,112.404 199.463,112.544 199.322 C 112.685 199.182,112.800 198.479,112.800 197.760 C 112.800 196.805,113.015 196.386,113.600 196.200 C 114.040 196.060,114.400 195.681,114.400 195.357 C 114.400 192.939,118.980 190.890,120.565 192.600 C 121.075 193.150,121.786 193.600,122.146 193.600 C 122.506 193.600,122.800 193.780,122.800 194.000 C 122.800 194.233,124.133 194.400,126.000 194.400 L 129.200 194.400 129.200 197.125 C 129.200 199.296,129.362 200.023,130.000 200.708 C 130.440 201.180,130.800 201.677,130.800 201.812 C 130.800 202.295,131.955 203.200,132.571 203.200 C 132.917 203.200,133.200 203.380,133.200 203.600 C 133.200 203.820,133.560 204.000,134.000 204.000 C 134.440 204.000,134.800 204.180,134.800 204.400 C 134.800 204.633,136.133 204.800,138.000 204.800 L 141.200 204.800 141.200 221.000 C 141.200 231.533,141.340 237.200,141.600 237.200 C 141.820 237.200,142.003 237.605,142.006 238.100 C 142.011 238.828,142.086 238.885,142.400 238.400 C 142.728 237.892,142.789 237.912,142.794 238.529 C 142.801 239.332,143.701 240.400,144.371 240.400 C 144.607 240.400,144.800 240.580,144.800 240.800 C 144.800 241.688,151.641 241.275,152.453 240.339 C 152.864 239.865,153.200 239.698,153.200 239.967 C 153.200 240.305,153.387 240.270,153.800 239.857 C 154.130 239.527,154.400 238.974,154.400 238.629 C 154.400 238.283,154.580 238.000,154.800 238.000 C 155.020 238.000,155.200 237.719,155.200 237.376 C 155.200 237.033,155.380 236.864,155.600 237.000 C 155.937 237.208,156.217 235.772,156.047 234.700 C 156.021 234.535,156.186 234.400,156.413 234.400 C 156.686 234.400,156.817 231.247,156.800 225.100 C 156.785 219.985,156.779 213.325,156.786 210.300 L 156.800 204.800 159.000 204.800 L 161.200 204.800 161.284 218.300 C 161.349 228.789,161.420 230.417,161.600 225.600 C 161.727 222.190,161.870 234.730,161.916 253.467 C 161.982 280.297,162.106 287.571,162.500 287.712 C 162.775 287.810,162.866 288.034,162.702 288.209 C 162.539 288.385,162.089 288.242,161.702 287.893 C 160.924 287.188,160.971 287.200,158.976 287.200 C 158.193 287.200,157.640 287.058,157.748 286.885 C 157.855 286.712,157.489 286.532,156.935 286.486 C 156.382 286.441,155.720 286.273,155.464 286.113 C 155.209 285.954,154.644 285.768,154.209 285.700 C 153.773 285.632,153.242 285.402,153.029 285.189 C 152.815 284.975,152.226 284.800,151.720 284.800 C 151.214 284.800,150.800 284.620,150.800 284.400 C 150.800 284.180,150.619 284.000,150.398 284.000 C 150.177 284.000,149.063 283.550,147.923 283.000 C 146.783 282.450,145.603 282.000,145.302 282.000 C 145.000 282.000,144.864 281.820,145.000 281.600 C 145.136 281.380,144.967 281.200,144.624 281.200 C 144.281 281.200,144.000 281.009,144.000 280.776 C 144.000 280.543,143.841 280.451,143.647 280.571 C 143.453 280.691,142.839 280.432,142.284 279.995 C 141.728 279.558,141.186 279.200,141.079 279.200 C 140.972 279.200,140.307 278.660,139.600 278.000 C 138.893 277.340,138.109 276.792,137.858 276.783 C 137.606 276.774,136.958 276.234,136.419 275.583 C 135.879 274.932,135.193 274.400,134.895 274.400 C 134.597 274.400,134.464 274.220,134.600 274.000 C 134.736 273.780,134.567 273.600,134.224 273.600 C 133.881 273.600,133.600 273.432,133.600 273.227 C 133.600 273.022,133.237 272.739,132.794 272.598 C 132.351 272.457,132.080 272.195,132.191 272.014 C 132.303 271.834,131.632 270.947,130.701 270.043 C 129.770 269.139,129.231 268.400,129.504 268.400 C 129.777 268.400,130.000 268.580,130.000 268.800 C 130.000 269.031,131.267 269.200,133.000 269.200 C 134.733 269.200,136.000 269.031,136.000 268.800 C 136.000 268.580,136.193 268.400,136.429 268.400 C 136.664 268.400,137.092 268.175,137.380 267.900 C 137.667 267.625,138.284 267.135,138.751 266.812 C 139.218 266.488,139.600 265.914,139.600 265.535 C 139.600 265.157,139.780 264.736,140.000 264.600 C 140.220 264.464,140.400 263.013,140.400 261.376 C 140.400 259.659,140.231 258.400,140.000 258.400 C 139.780 258.400,139.600 258.084,139.600 257.697 C 139.600 256.979,137.086 254.400,136.387 254.400 C 136.174 254.400,136.000 254.250,136.000 254.067 C 136.000 253.883,135.730 253.703,135.400 253.667 C 135.070 253.630,134.540 253.570,134.222 253.533 C 133.904 253.497,133.679 253.296,133.722 253.086 C 133.765 252.877,133.443 252.647,133.007 252.575 C 132.571 252.503,132.151 252.254,132.074 252.022 C 131.997 251.790,131.363 251.586,130.667 251.568 C 129.970 251.551,129.635 251.443,129.922 251.328 C 130.463 251.111,123.088 247.200,122.138 247.200 C 121.842 247.200,121.600 247.064,121.600 246.898 C 121.600 246.731,121.015 246.360,120.300 246.071 C 119.585 245.783,118.687 245.379,118.305 245.174 C 117.923 244.968,117.338 244.800,117.005 244.800 C 116.672 244.800,116.400 244.657,116.400 244.483 C 116.400 244.062,113.121 243.200,111.521 243.200 C 110.147 243.200,106.800 244.643,106.800 245.236 C 106.800 245.436,106.559 245.600,106.264 245.600 C 105.755 245.600,104.800 247.188,104.800 248.036 C 104.800 248.254,104.440 248.820,104.000 249.292 C 103.464 249.868,103.200 250.704,103.200 251.827 C 103.200 252.748,102.930 254.149,102.600 254.938 C 102.270 255.728,102.000 257.010,102.000 257.787 C 102.000 258.564,101.820 259.200,101.600 259.200 C 101.380 259.200,101.200 259.729,101.200 260.376 C 101.200 261.023,101.058 261.641,100.884 261.748 C 100.710 261.856,100.521 262.626,100.465 263.460 C 100.409 264.293,100.200 265.077,100.000 265.200 C 99.800 265.323,99.592 266.094,99.537 266.912 C 99.482 267.730,99.293 268.400,99.118 268.400 C 98.943 268.400,98.800 268.929,98.800 269.576 C 98.800 270.223,98.645 270.848,98.457 270.965 C 97.839 271.347,98.572 276.000,99.250 276.000 C 99.442 276.000,99.600 276.186,99.600 276.413 C 99.600 277.276,102.379 279.600,103.410 279.600 C 103.981 279.600,104.356 279.747,104.245 279.926 C 104.135 280.106,104.844 280.294,105.822 280.345 C 106.852 280.398,107.600 280.261,107.600 280.018 C 107.600 279.788,108.062 279.600,108.626 279.600 C 110.366 279.600,112.752 277.822,112.787 276.500 C 112.794 276.225,112.980 276.000,113.200 276.000 C 113.420 276.000,113.600 275.340,113.600 274.533 C 113.600 272.882,113.852 272.872,114.150 274.512 C 114.357 275.657,114.680 276.061,116.521 277.482 C 117.137 277.958,117.632 278.449,117.621 278.574 C 117.547 279.377,117.744 279.709,118.993 280.887 C 119.759 281.609,120.794 282.584,121.293 283.054 C 121.792 283.524,122.770 284.514,123.466 285.254 C 125.001 286.885,125.586 287.359,126.500 287.708 C 126.885 287.855,127.200 288.251,127.200 288.587 C 127.200 288.924,127.430 289.200,127.712 289.200 C 127.993 289.200,128.483 289.560,128.800 290.000 C 129.117 290.440,129.707 290.800,130.112 290.800 C 130.516 290.800,130.736 290.980,130.600 291.200 C 130.464 291.420,130.633 291.600,130.976 291.600 C 131.319 291.600,131.600 291.780,131.600 292.000 C 131.600 292.220,131.862 292.400,132.182 292.400 C 132.502 292.400,133.214 292.850,133.764 293.400 C 134.314 293.950,135.042 294.400,135.382 294.400 C 135.722 294.400,136.000 294.580,136.000 294.800 C 136.000 295.020,136.317 295.200,136.704 295.200 C 137.091 295.200,137.622 295.544,137.885 295.964 C 138.147 296.384,138.908 296.848,139.576 296.995 C 140.244 297.142,140.894 297.428,141.019 297.631 C 141.145 297.834,141.687 298.000,142.224 298.000 C 142.761 298.000,143.200 298.180,143.200 298.400 C 143.200 298.620,143.560 298.800,144.000 298.800 C 144.440 298.800,144.800 298.980,144.800 299.200 C 144.800 299.420,145.160 299.600,145.600 299.600 C 146.040 299.600,146.400 299.780,146.400 300.000 C 146.400 300.220,146.940 300.400,147.600 300.400 C 148.260 300.400,148.800 300.580,148.800 300.800 C 148.800 301.020,149.325 301.200,149.967 301.200 C 150.608 301.200,151.194 301.383,151.269 301.606 C 151.343 301.829,152.618 302.125,154.102 302.264 C 155.586 302.402,156.800 302.670,156.800 302.858 C 156.800 303.046,157.610 303.200,158.600 303.200 C 159.770 303.200,160.402 303.375,160.406 303.700 C 160.410 304.039,160.549 304.007,160.837 303.600 C 161.156 303.148,161.311 303.124,161.464 303.500 C 161.596 303.827,162.555 304.000,164.233 304.000 C 165.678 304.000,166.800 304.175,166.800 304.400 C 166.800 304.631,167.857 304.772,169.300 304.735 L 171.800 304.670 169.600 304.400 L 167.400 304.130 169.420 304.065 C 170.574 304.028,171.667 304.214,171.970 304.500 C 172.394 304.900,172.537 304.900,172.683 304.500 C 172.808 304.161,173.829 304.000,175.857 304.000 C 177.749 304.000,178.756 303.853,178.600 303.600 C 178.448 303.353,179.129 303.200,180.376 303.200 C 181.489 303.200,182.400 303.046,182.400 302.858 C 182.400 302.670,183.703 302.407,185.295 302.273 C 186.887 302.140,188.252 301.844,188.328 301.615 C 188.404 301.387,188.902 301.200,189.433 301.200 C 189.965 301.200,190.400 301.012,190.400 300.782 C 190.400 300.553,190.625 300.394,190.900 300.430 C 192.044 300.578,193.233 300.377,193.042 300.067 C 192.929 299.884,193.728 299.492,194.818 299.195 C 195.908 298.898,196.800 298.508,196.800 298.328 C 196.800 298.147,197.070 298.000,197.400 298.000 C 197.730 298.000,198.000 297.820,198.000 297.600 C 198.000 297.380,198.264 297.200,198.586 297.200 C 199.469 297.200,202.113 295.898,202.847 295.102 C 203.203 294.716,203.788 294.400,204.147 294.400 C 204.506 294.400,204.800 294.220,204.800 294.000 C 204.800 293.780,205.094 293.600,205.454 293.600 C 205.814 293.600,206.525 293.150,207.035 292.600 C 207.545 292.050,208.168 291.600,208.420 291.600 C 208.673 291.600,209.392 291.051,210.018 290.380 C 210.645 289.709,211.302 289.169,211.479 289.180 C 211.656 289.191,211.822 289.020,211.850 288.800 C 212.015 287.479,212.132 287.620,212.402 289.465 C 212.719 291.631,214.843 294.400,216.187 294.400 C 216.524 294.400,216.800 294.580,216.800 294.800 C 216.800 295.029,218.000 295.200,219.600 295.200 C 221.200 295.200,222.400 295.029,222.400 294.800 C 222.400 294.580,222.805 294.394,223.300 294.387 C 224.481 294.371,225.600 293.496,225.600 292.589 C 225.600 292.192,225.719 291.986,225.864 292.131 C 226.517 292.784,227.352 290.468,227.521 287.532 C 227.621 285.810,227.860 284.400,228.051 284.400 C 228.243 284.400,228.400 283.770,228.400 283.000 C 228.400 282.230,228.580 281.600,228.800 281.600 C 229.020 281.600,229.200 280.610,229.200 279.400 C 229.200 278.040,229.371 277.200,229.649 277.200 C 229.959 277.200,229.944 277.015,229.600 276.600 C 229.256 276.185,229.241 276.000,229.551 276.000 C 229.823 276.000,230.000 275.212,230.000 274.000 C 230.000 272.900,230.180 272.000,230.400 272.000 C 230.620 272.000,230.800 271.190,230.800 270.200 C 230.800 269.030,230.975 268.398,231.300 268.394 C 231.633 268.390,231.600 268.258,231.200 268.000 C 230.800 267.742,230.767 267.610,231.100 267.606 C 231.465 267.602,231.600 266.565,231.600 263.776 C 231.600 261.329,231.456 260.042,231.200 260.200 C 230.980 260.336,230.796 260.122,230.791 259.724 C 230.780 258.893,228.480 256.264,227.594 256.070 C 227.267 255.999,226.940 255.774,226.867 255.570 C 226.687 255.071,220.664 255.096,220.162 255.598 C 219.944 255.816,219.291 256.035,218.711 256.083 C 218.132 256.130,217.745 256.312,217.852 256.485 C 217.960 256.658,217.507 256.800,216.847 256.800 C 216.187 256.800,215.549 256.959,215.429 257.154 C 215.308 257.348,214.402 257.629,213.414 257.777 C 212.427 257.925,211.514 258.216,211.386 258.423 C 211.258 258.630,210.749 258.800,210.256 258.800 C 209.763 258.800,209.189 258.969,208.980 259.175 C 208.771 259.382,208.112 259.615,207.515 259.694 C 206.918 259.772,206.303 259.963,206.148 260.118 C 205.993 260.273,205.447 260.400,204.933 260.400 C 204.420 260.400,204.000 260.580,204.000 260.800 C 204.000 261.020,203.561 261.200,203.024 261.200 C 202.487 261.200,201.936 261.380,201.800 261.600 C 201.664 261.820,201.111 262.000,200.571 262.000 C 199.679 262.000,198.941 262.277,197.200 263.265 C 196.870 263.452,196.330 263.729,196.000 263.880 C 195.027 264.326,194.400 265.094,194.400 265.838 C 194.400 266.220,194.277 266.410,194.127 266.260 C 193.642 265.775,192.800 268.434,192.800 270.450 C 192.800 274.608,196.305 278.332,199.830 277.921 C 200.584 277.833,201.200 277.904,201.200 278.080 C 201.200 278.256,200.744 278.400,200.186 278.400 C 199.164 278.400,197.657 279.198,196.225 280.497 C 195.798 280.884,195.202 281.200,194.901 281.200 C 194.599 281.200,194.464 281.380,194.600 281.600 C 194.736 281.820,194.600 282.000,194.298 282.000 C 193.997 282.000,192.817 282.450,191.677 283.000 C 190.537 283.550,189.423 284.000,189.202 284.000 C 188.981 284.000,188.800 284.180,188.800 284.400 C 188.800 284.620,188.350 284.800,187.800 284.800 C 187.250 284.800,186.800 284.980,186.800 285.200 C 186.800 285.420,186.260 285.600,185.600 285.600 C 184.940 285.600,184.400 285.780,184.400 286.000 C 184.400 286.220,183.961 286.400,183.424 286.400 C 182.887 286.400,182.336 286.580,182.200 286.800 C 182.064 287.020,181.063 287.200,179.976 287.200 C 178.889 287.200,178.000 287.380,178.000 287.600 C 178.000 287.820,177.865 288.000,177.700 288.000 C 177.535 288.001,177.461 283.726,177.536 278.500 C 177.692 267.666,176.870 206.563,176.554 205.500 C 176.367 204.870,176.706 204.800,179.973 204.800 C 183.447 204.800,184.031 204.982,183.243 205.820 C 182.219 206.909,182.563 239.639,183.606 240.400 C 183.757 240.510,184.094 241.005,184.354 241.500 C 184.615 241.995,185.182 242.400,185.614 242.400 C 186.046 242.400,186.400 242.580,186.400 242.800 C 186.400 243.020,186.681 243.200,187.024 243.200 C 187.367 243.200,187.553 243.353,187.437 243.540 C 187.322 243.727,188.481 243.916,190.014 243.961 C 191.749 244.012,192.800 243.883,192.800 243.621 C 192.800 243.390,193.145 243.200,193.567 243.200 C 193.988 243.200,194.393 243.033,194.467 242.830 C 194.540 242.626,194.870 242.401,195.200 242.330 C 195.530 242.258,196.292 241.390,196.893 240.400 L 197.986 238.600 197.993 227.133 C 197.998 218.339,198.117 215.620,198.500 215.465 C 198.900 215.304,198.900 215.257,198.500 215.232 C 198.130 215.208,198.000 213.956,198.000 210.400 C 198.000 206.837,198.129 205.595,198.500 205.581 C 198.775 205.571,201.761 205.579,205.135 205.599 C 209.306 205.624,211.187 205.502,211.011 205.218 C 210.855 204.965,211.197 204.800,211.876 204.800 L 213.000 204.799 212.883 212.400 C 212.805 217.478,212.905 220.000,213.183 220.000 C 213.412 220.000,213.600 220.572,213.600 221.272 C 213.600 223.690,214.418 225.370,216.928 228.112 C 217.548 228.790,218.268 229.645,218.528 230.012 C 218.787 230.380,219.630 231.013,220.400 231.419 C 224.224 233.434,232.710 233.012,234.847 230.700 C 235.203 230.315,235.743 229.999,236.047 229.999 C 236.351 229.998,236.960 229.459,237.400 228.800 C 237.840 228.141,238.335 227.602,238.500 227.601 C 238.976 227.599,242.000 224.353,242.000 223.845 C 242.000 223.592,242.450 222.723,243.000 221.914 C 243.550 221.105,244.000 220.163,244.000 219.821 C 244.000 219.480,244.180 219.200,244.400 219.200 C 244.620 219.200,244.800 218.750,244.800 218.200 C 244.800 217.650,244.980 217.200,245.200 217.200 C 245.420 217.200,245.600 216.930,245.600 216.600 C 245.600 216.270,245.736 216.000,245.902 216.000 C 246.231 216.000,247.131 213.655,247.475 211.900 C 248.006 209.194,248.400 211.283,248.400 216.800 C 248.400 220.533,248.551 222.800,248.800 222.800 C 249.033 222.800,249.200 224.125,249.200 225.976 C 249.200 227.723,249.380 229.264,249.600 229.400 C 249.820 229.536,250.000 230.277,250.000 231.047 C 250.000 231.879,250.162 232.347,250.400 232.200 C 250.642 232.050,250.800 232.604,250.800 233.600 C 250.800 234.596,250.958 235.150,251.200 235.000 C 251.438 234.853,251.600 235.329,251.600 236.176 C 251.600 236.959,251.780 237.600,252.000 237.600 C 252.220 237.600,252.400 238.158,252.400 238.840 C 252.400 241.047,254.759 244.800,256.147 244.800 C 256.506 244.800,256.800 244.980,256.800 245.200 C 256.800 245.420,257.340 245.600,258.000 245.600 C 258.667 245.600,259.200 245.813,259.200 246.080 C 259.200 246.453,259.307 246.453,259.680 246.080 C 259.944 245.816,260.844 245.600,261.680 245.600 C 262.516 245.600,263.200 245.420,263.200 245.200 C 263.200 244.980,263.491 244.800,263.846 244.800 C 265.013 244.800,267.148 242.022,267.430 240.136 C 267.851 237.331,266.771 230.400,265.913 230.400 C 265.741 230.400,265.600 229.770,265.600 229.000 C 265.600 228.230,265.420 227.600,265.200 227.600 C 264.980 227.600,264.800 226.610,264.800 225.400 C 264.800 224.190,264.980 223.200,265.200 223.200 C 265.420 223.200,265.600 223.560,265.600 224.000 C 265.600 224.440,265.780 224.800,266.000 224.800 C 266.220 224.800,266.400 225.070,266.400 225.400 C 266.400 225.730,266.580 226.000,266.800 226.000 C 267.020 226.000,267.200 226.276,267.200 226.613 C 267.200 226.949,267.470 227.329,267.800 227.455 C 268.130 227.582,268.400 227.987,268.400 228.354 C 268.400 228.722,268.760 229.283,269.200 229.600 C 269.640 229.917,270.000 230.417,270.000 230.712 C 270.000 231.006,270.180 231.136,270.400 231.000 C 270.620 230.864,270.800 231.001,270.800 231.304 C 270.800 231.608,271.205 232.236,271.700 232.700 C 272.863 233.792,273.600 234.697,273.600 235.035 C 273.600 235.275,274.598 236.339,279.092 240.891 C 280.940 242.763,282.336 244.000,282.599 244.000 C 282.724 244.000,283.468 244.641,284.251 245.424 C 285.034 246.207,286.063 247.017,286.537 247.223 C 287.643 247.704,288.748 248.417,289.754 249.300 C 290.192 249.685,290.772 250.000,291.042 250.000 C 291.312 250.000,291.593 250.142,291.667 250.315 C 291.861 250.772,296.163 252.800,296.940 252.800 C 297.303 252.800,297.600 252.980,297.600 253.200 C 297.600 253.420,297.960 253.600,298.400 253.600 C 298.840 253.600,299.200 253.780,299.200 254.000 C 299.200 254.220,299.819 254.400,300.576 254.400 C 301.333 254.400,302.064 254.580,302.200 254.800 C 302.336 255.020,303.292 255.203,304.324 255.206 C 305.683 255.211,306.035 255.319,305.600 255.600 C 305.197 255.860,306.872 255.990,310.700 255.994 C 314.237 255.998,316.400 255.848,316.400 255.600 C 316.400 255.380,317.300 255.200,318.400 255.200 C 319.500 255.200,320.400 255.020,320.400 254.800 C 320.400 254.580,320.850 254.400,321.400 254.400 C 321.950 254.400,322.400 254.220,322.400 254.000 C 322.400 253.780,322.760 253.600,323.200 253.600 C 323.640 253.600,324.000 253.443,324.000 253.250 C 324.000 253.058,324.534 252.793,325.188 252.662 C 325.841 252.532,326.741 252.059,327.188 251.612 C 327.634 251.166,328.230 250.800,328.512 250.800 C 328.793 250.800,329.283 250.440,329.600 250.000 C 329.917 249.560,330.341 249.200,330.542 249.200 C 330.744 249.200,331.319 248.795,331.821 248.300 C 332.324 247.805,333.461 246.770,334.349 246.000 C 335.237 245.230,335.971 244.367,335.982 244.083 C 335.992 243.798,336.450 243.080,337.000 242.487 C 337.550 241.893,338.000 241.221,338.000 240.992 C 338.000 240.764,338.360 240.317,338.800 240.000 C 339.240 239.683,339.600 239.103,339.600 238.712 C 339.600 238.320,339.780 238.000,340.000 238.000 C 340.220 238.000,340.400 237.640,340.400 237.200 C 340.400 236.760,340.567 236.400,340.771 236.400 C 341.175 236.400,342.400 234.158,342.400 233.418 C 342.400 232.731,343.356 230.807,343.700 230.803 C 343.865 230.801,344.000 230.476,344.000 230.080 C 344.000 229.684,344.225 229.118,344.500 228.821 C 344.906 228.384,344.888 228.342,344.400 228.600 C 343.912 228.858,343.894 228.816,344.300 228.379 C 344.575 228.082,344.800 227.415,344.800 226.896 C 344.800 226.369,344.977 226.062,345.200 226.200 C 345.438 226.347,345.600 225.871,345.600 225.024 C 345.600 224.241,345.420 223.600,345.200 223.600 C 344.980 223.600,344.800 222.880,344.800 222.000 C 344.800 221.120,344.620 220.400,344.400 220.400 C 344.180 220.400,344.001 220.175,344.003 219.900 C 344.007 219.119,341.109 216.800,340.128 216.800 C 339.644 216.800,339.136 216.620,339.000 216.400 C 338.864 216.180,338.324 216.000,337.800 216.000 C 337.276 216.000,336.736 216.180,336.600 216.400 C 336.464 216.620,335.813 216.800,335.153 216.800 C 334.455 216.800,334.056 216.967,334.200 217.200 C 334.336 217.420,334.212 217.606,333.924 217.613 C 333.231 217.631,331.663 218.957,331.516 219.651 C 331.452 219.953,331.057 220.515,330.639 220.900 C 330.220 221.285,330.005 221.600,330.161 221.600 C 330.318 221.600,330.181 222.095,329.859 222.700 C 328.878 224.540,327.200 228.398,327.200 228.811 C 327.200 229.025,327.020 229.200,326.800 229.200 C 326.580 229.200,326.400 229.470,326.400 229.800 C 326.400 230.130,326.220 230.400,326.000 230.400 C 325.780 230.400,325.597 230.625,325.593 230.900 C 325.577 232.067,319.991 237.259,317.739 238.200 C 314.140 239.703,308.557 239.712,304.985 238.220 C 304.170 237.879,303.235 237.600,302.909 237.600 C 302.583 237.600,301.516 237.060,300.538 236.400 C 299.560 235.740,298.589 235.200,298.380 235.200 C 298.171 235.200,298.000 235.048,298.000 234.863 C 298.000 234.678,297.370 234.187,296.600 233.772 C 295.830 233.357,295.200 232.879,295.200 232.709 C 295.200 232.539,294.924 232.400,294.588 232.400 C 294.251 232.400,293.103 231.500,292.038 230.400 C 290.972 229.300,289.897 228.400,289.650 228.400 C 289.402 228.400,289.200 228.151,289.200 227.847 C 289.200 227.542,288.840 227.199,288.400 227.084 C 287.960 226.969,287.600 226.588,287.600 226.237 C 287.600 225.887,287.319 225.600,286.976 225.600 C 286.633 225.600,286.452 225.440,286.573 225.244 C 286.694 225.049,286.009 224.187,285.051 223.330 C 284.093 222.472,283.007 221.186,282.637 220.472 C 282.268 219.758,281.794 219.280,281.583 219.411 C 281.372 219.541,281.200 219.401,281.200 219.099 C 281.200 218.798,280.840 218.164,280.400 217.692 C 279.960 217.220,279.600 216.646,279.600 216.417 C 279.600 216.188,279.420 216.000,279.200 216.000 C 278.980 216.000,278.800 215.764,278.800 215.475 C 278.800 215.187,278.440 214.564,278.000 214.092 C 277.560 213.620,277.200 213.046,277.200 212.817 C 277.200 212.588,277.009 212.400,276.776 212.400 C 276.543 212.400,276.464 212.220,276.600 212.000 C 276.736 211.780,276.657 211.600,276.424 211.600 C 276.191 211.600,276.000 211.410,276.000 211.179 C 276.000 210.496,274.153 207.980,273.865 208.269 C 273.719 208.414,273.600 208.309,273.600 208.035 C 273.600 207.761,274.313 206.831,275.184 205.969 C 276.056 205.106,276.663 204.400,276.534 204.400 C 276.405 204.400,276.872 203.905,277.571 203.300 C 280.265 200.970,283.200 197.797,283.200 197.214 C 283.200 196.986,283.338 196.800,283.506 196.800 C 283.674 196.800,284.256 196.080,284.800 195.200 C 285.344 194.320,285.937 193.600,286.118 193.600 C 286.299 193.600,286.345 193.435,286.220 193.232 C 286.095 193.030,286.277 192.580,286.625 192.232 C 286.973 191.885,287.118 191.600,286.949 191.600 C 286.779 191.600,286.856 191.384,287.120 191.120 C 287.384 190.856,287.600 190.316,287.600 189.920 C 287.600 189.524,287.780 189.200,288.000 189.200 C 288.220 189.200,288.400 188.845,288.400 188.412 C 288.400 187.979,288.760 186.983,289.200 186.200 C 289.640 185.417,290.000 184.051,290.000 183.164 C 290.000 182.150,290.154 181.648,290.416 181.810 C 290.698 181.984,290.815 179.998,290.780 175.634 C 290.751 172.072,290.566 169.200,290.364 169.200 C 290.164 169.200,290.000 168.930,290.000 168.600 C 290.000 168.270,289.820 168.000,289.600 168.000 C 289.380 168.000,289.200 167.640,289.200 167.200 C 289.200 166.760,289.042 166.400,288.849 166.400 C 288.655 166.400,288.289 165.905,288.034 165.300 C 287.537 164.120,284.862 162.000,283.869 162.000 C 283.538 162.000,283.207 161.828,283.133 161.618 C 283.060 161.407,282.325 161.190,281.500 161.136 C 280.675 161.081,280.000 160.893,280.000 160.718 C 280.000 160.543,279.550 160.400,279.000 160.400 C 278.450 160.400,278.000 160.580,278.000 160.800 C 278.000 161.020,277.100 161.200,276.000 161.200 C 274.900 161.200,274.000 161.380,274.000 161.600 C 274.000 161.820,273.650 162.000,273.221 162.000 C 272.112 162.000,269.164 163.645,267.607 165.133 C 266.878 165.830,266.151 166.400,265.991 166.400 C 265.831 166.400,265.554 166.985,265.377 167.700 L 265.053 169.000 264.906 167.562 C 264.741 165.951,262.695 163.468,261.138 162.990 C 260.622 162.832,259.984 162.530,259.720 162.319 C 257.642 160.659,250.800 164.328,250.800 167.102 C 250.800 167.630,250.624 167.938,250.400 167.800 C 250.145 167.642,250.000 168.870,250.000 171.200 C 250.000 173.700,249.865 174.764,249.570 174.581 C 249.268 174.395,249.179 176.064,249.270 180.167 C 249.376 184.923,249.306 185.890,248.900 185.332 C 248.625 184.956,248.400 184.362,248.400 184.012 C 248.400 183.663,248.085 183.088,247.700 182.734 C 247.315 182.380,246.730 181.755,246.400 181.345 C 245.555 180.296,243.345 178.800,242.640 178.800 C 242.314 178.800,241.934 178.617,241.796 178.393 C 241.658 178.170,241.390 178.083,241.200 178.200 C 241.010 178.317,240.742 178.230,240.604 178.007 C 239.799 176.703,229.527 177.950,227.680 179.574 C 227.289 179.919,226.706 180.259,226.384 180.330 C 226.063 180.402,225.740 180.627,225.667 180.830 C 225.593 181.034,225.323 181.202,225.067 181.204 C 223.219 181.220,216.825 189.681,216.787 192.160 C 216.775 192.995,216.771 192.995,216.206 192.200 C 215.106 190.654,214.251 190.000,213.330 190.000 C 212.819 190.000,212.400 189.820,212.400 189.600 C 212.400 189.349,209.867 189.200,205.600 189.200 L 198.800 189.200 198.800 182.200 C 198.800 177.800,198.949 175.200,199.200 175.200 C 199.449 175.200,199.600 172.941,199.600 169.224 C 199.600 165.671,199.438 163.147,199.200 163.000 C 198.980 162.864,198.800 162.123,198.800 161.353 C 198.800 160.521,198.638 160.053,198.400 160.200 C 198.180 160.336,198.000 160.091,198.000 159.655 C 198.000 155.986,189.895 154.611,186.802 157.756 C 184.171 160.431,184.000 161.011,184.000 167.269 C 184.000 170.976,183.862 172.762,183.590 172.594 C 183.365 172.455,183.206 172.489,183.237 172.670 C 183.269 172.852,183.273 176.645,183.247 181.100 L 183.200 189.200 180.000 189.200 L 176.800 189.200 176.800 183.833 C 176.800 180.664,176.639 178.412,176.406 178.333 C 175.524 178.035,175.865 131.817,176.750 131.677 C 177.179 131.609,178.084 131.024,178.761 130.377 C 179.439 129.730,180.129 129.198,180.296 129.196 C 180.463 129.194,180.960 128.737,181.400 128.180 C 181.840 127.624,182.605 126.734,183.100 126.203 C 183.595 125.671,184.000 124.998,184.000 124.706 C 184.000 124.415,184.360 123.917,184.800 123.600 C 185.270 123.261,185.600 122.565,185.600 121.912 C 185.600 121.300,185.780 120.800,186.000 120.800 C 186.220 120.800,186.400 120.159,186.400 119.376 C 186.400 118.483,186.557 118.050,186.820 118.213 C 187.105 118.388,187.218 117.171,187.171 114.436 C 187.133 112.216,186.944 110.400,186.751 110.400 C 186.558 110.400,186.400 109.948,186.400 109.395 C 186.400 108.842,186.235 108.077,186.033 107.695 C 185.832 107.313,185.451 106.417,185.187 105.705 C 184.923 104.993,184.548 104.509,184.354 104.629 C 184.159 104.749,184.000 104.554,184.000 104.195 C 184.000 103.836,183.775 103.308,183.500 103.022 C 183.225 102.735,182.300 101.668,181.444 100.651 C 180.588 99.633,179.643 98.800,179.344 98.800 C 179.045 98.800,178.800 98.590,178.800 98.333 C 178.800 98.077,178.682 97.985,178.537 98.130 C 178.392 98.275,178.077 98.234,177.837 98.039 C 176.607 97.042,174.242 96.000,173.211 96.000 C 172.571 96.000,171.947 95.837,171.824 95.638 C 171.701 95.439,170.160 95.276,168.400 95.276 C 166.640 95.276,165.099 95.439,164.976 95.638 M171.659 100.544 C 185.061 103.699,186.463 121.766,173.786 127.948 L 171.210 129.203 171.449 142.702 C 171.580 150.126,171.803 164.660,171.944 175.000 L 172.200 193.800 179.771 193.909 C 185.560 193.993,187.418 193.898,187.665 193.509 C 187.842 193.229,188.006 188.860,188.028 183.800 C 188.098 167.479,188.442 162.457,189.549 161.561 C 190.890 160.475,192.852 160.578,193.994 161.794 L 194.928 162.788 194.685 178.183 C 194.552 186.651,194.589 193.670,194.769 193.781 C 194.949 193.892,198.937 194.106,203.632 194.257 C 213.108 194.562,214.017 194.845,213.987 197.482 C 213.954 200.417,212.691 200.800,203.050 200.800 C 196.921 200.800,194.768 200.926,194.534 201.300 C 194.362 201.575,194.110 209.630,193.975 219.200 C 193.763 234.145,193.636 236.777,193.079 237.852 C 192.012 239.909,189.800 240.236,188.146 238.583 L 187.129 237.565 187.422 219.183 L 187.715 200.800 180.085 200.800 C 172.478 200.800,172.455 200.803,172.328 201.700 C 172.199 202.607,172.543 233.975,173.099 272.000 L 173.400 292.600 174.763 292.730 C 184.269 293.637,202.482 284.162,211.479 273.629 C 214.817 269.721,214.499 269.576,207.422 271.773 C 200.358 273.966,199.620 274.014,198.236 272.369 C 196.907 270.791,196.928 269.811,198.318 268.420 C 199.435 267.304,199.659 267.223,215.800 262.141 C 218.220 261.379,220.613 260.586,221.119 260.378 C 226.506 258.163,227.706 260.737,225.999 270.847 C 225.316 274.891,224.401 280.320,223.964 282.911 C 222.832 289.643,222.242 290.800,219.945 290.800 C 216.607 290.800,216.063 289.170,217.213 282.613 C 217.700 279.837,217.989 277.456,217.855 277.322 C 217.721 277.188,215.486 279.143,212.887 281.666 C 183.596 310.110,139.149 304.394,115.954 269.200 C 111.686 262.725,112.145 262.712,110.439 269.359 C 109.067 274.699,108.501 275.600,106.512 275.600 C 102.323 275.600,102.257 274.645,105.546 261.590 C 109.596 245.510,108.749 245.872,124.319 253.574 C 136.698 259.697,137.945 260.891,135.018 263.818 C 133.520 265.316,132.535 265.072,125.156 261.378 C 117.258 257.424,116.691 257.328,118.210 260.200 C 127.474 277.714,147.725 292.161,163.529 292.529 L 166.600 292.600 166.506 286.200 C 166.454 282.680,166.226 262.078,165.998 240.419 C 165.679 210.055,165.472 200.966,165.092 200.725 C 164.456 200.321,153.152 200.316,152.517 200.719 C 152.155 200.949,152.004 205.239,151.917 217.813 C 151.790 236.106,151.807 235.971,149.493 236.777 C 145.349 238.222,145.037 236.792,145.305 217.523 C 145.566 198.628,146.143 200.520,140.065 200.337 C 135.106 200.187,133.600 199.410,133.600 197.000 C 133.600 194.560,135.057 193.840,140.457 193.610 L 145.400 193.400 145.637 179.000 C 145.891 163.604,145.907 163.476,147.629 162.585 C 149.184 161.781,149.776 161.846,151.078 162.965 L 152.200 163.930 152.400 178.865 L 152.600 193.800 158.853 193.910 C 163.642 193.994,165.148 193.900,165.282 193.510 C 165.519 192.818,164.855 136.650,164.560 132.482 L 164.325 129.164 161.782 127.962 C 146.313 120.653,154.972 96.617,171.659 100.544 M165.685 107.252 C 162.043 108.302,159.361 113.471,160.570 117.111 C 163.245 125.164,174.461 123.863,175.824 115.341 C 176.689 109.933,171.299 105.632,165.685 107.252 M170.700 112.377 C 172.155 113.591,171.925 115.583,170.201 116.700 C 168.612 117.729,166.726 117.868,165.876 117.019 C 165.557 116.700,165.184 116.550,165.048 116.686 C 164.911 116.822,164.803 115.958,164.806 114.767 C 164.810 113.220,164.923 112.772,165.200 113.200 C 165.516 113.689,165.589 113.640,165.594 112.933 C 165.604 111.435,169.112 111.053,170.700 112.377 M55.879 141.238 C 61.728 144.070,62.217 153.886,57.842 180.600 C 56.355 189.679,56.283 188.780,58.596 189.972 C 62.599 192.034,61.483 197.141,57.235 196.208 C 55.341 195.792,55.288 195.989,53.984 208.200 C 50.892 237.155,54.911 254.474,67.775 267.625 C 71.083 271.007,71.579 272.106,70.628 273.945 C 66.034 282.829,50.069 263.899,45.826 244.535 C 43.111 232.145,43.120 220.854,45.862 201.458 C 46.262 198.621,46.339 196.979,46.083 196.723 C 45.095 195.735,24.473 202.664,23.443 204.330 C 22.611 205.676,19.926 224.831,20.271 226.958 C 20.728 229.779,17.028 231.885,14.793 230.075 C 13.626 229.130,13.383 226.611,13.973 221.600 C 14.219 219.510,14.602 215.666,14.824 213.059 C 15.046 210.451,15.266 208.111,15.314 207.859 C 15.374 207.536,14.438 207.438,12.152 207.529 C 6.840 207.741,4.000 206.397,4.000 203.672 C 4.000 201.557,5.358 200.801,9.170 200.794 C 15.881 200.782,16.461 200.355,17.588 194.600 C 23.770 163.027,43.652 135.319,55.879 141.238 M49.582 149.354 C 42.372 154.646,31.963 173.355,26.932 190.063 C 25.123 196.071,25.188 196.164,29.873 194.309 C 33.931 192.701,37.419 191.645,42.800 190.396 C 44.890 189.911,46.865 189.382,47.188 189.221 C 48.519 188.558,54.300 156.182,53.853 151.901 C 53.408 147.649,52.579 147.154,49.582 149.354 M49.200 158.247 C 49.200 159.017,49.037 159.546,48.837 159.423 C 48.637 159.300,48.384 160.144,48.273 161.299 C 48.162 162.455,47.961 163.940,47.825 164.600 C 47.689 165.260,47.474 167.060,47.347 168.600 C 47.220 170.140,46.955 171.571,46.758 171.780 C 46.561 171.989,46.400 172.563,46.400 173.056 C 46.400 173.549,46.220 174.064,46.000 174.200 C 45.780 174.336,45.600 175.416,45.600 176.600 C 45.600 177.784,45.420 178.864,45.200 179.000 C 44.980 179.136,44.800 179.741,44.800 180.344 C 44.800 180.947,44.575 181.682,44.300 181.979 C 43.900 182.410,43.900 182.461,44.300 182.235 C 44.890 181.902,44.986 182.638,44.400 183.000 C 44.180 183.136,43.997 183.822,43.994 184.524 C 43.990 185.391,43.878 185.626,43.644 185.257 C 43.404 184.879,43.217 184.849,43.026 185.157 C 42.876 185.401,42.144 185.600,41.400 185.600 C 40.656 185.600,39.936 185.780,39.800 186.000 C 39.664 186.220,39.034 186.400,38.400 186.400 C 37.766 186.400,37.148 186.560,37.027 186.756 C 36.906 186.951,36.221 187.203,35.504 187.314 C 34.787 187.425,33.768 187.653,33.241 187.820 C 32.255 188.133,32.244 186.022,33.230 185.667 C 33.433 185.593,33.600 185.008,33.600 184.367 C 33.600 183.725,33.780 183.200,34.000 183.200 C 34.220 183.200,34.400 182.649,34.400 181.976 C 34.400 181.263,34.567 180.856,34.800 181.000 C 35.020 181.136,35.200 180.877,35.200 180.424 C 35.200 179.971,35.380 179.600,35.600 179.600 C 35.820 179.600,36.000 179.060,36.000 178.400 C 36.000 177.740,36.160 177.200,36.357 177.200 C 36.553 177.200,36.833 176.705,36.979 176.100 C 37.365 174.502,38.148 172.800,38.498 172.800 C 38.664 172.800,38.800 172.429,38.800 171.976 C 38.800 171.523,38.980 171.264,39.200 171.400 C 39.420 171.536,39.600 171.292,39.600 170.857 C 39.600 170.422,39.767 170.007,39.970 169.933 C 40.174 169.860,40.399 169.530,40.470 169.200 C 40.542 168.870,40.903 168.319,41.273 167.976 C 41.644 167.633,42.077 166.823,42.237 166.176 C 42.397 165.529,42.859 164.709,43.264 164.353 C 43.669 163.997,44.000 163.452,44.000 163.141 C 44.000 162.831,44.360 162.317,44.800 162.000 C 45.240 161.683,45.600 161.208,45.600 160.945 C 45.600 160.682,45.767 160.407,45.970 160.333 C 46.174 160.260,46.399 159.934,46.470 159.610 C 46.542 159.285,46.780 158.812,47.000 158.559 C 47.220 158.305,47.658 157.726,47.973 157.270 C 48.736 156.167,49.200 156.536,49.200 158.247 M282.771 166.718 C 287.697 170.396,287.710 179.196,282.805 189.411 C 280.855 193.473,274.581 200.897,270.716 203.717 C 267.467 206.087,267.500 205.761,270.051 210.217 C 291.961 248.486,322.327 255.627,333.771 225.200 C 334.713 222.694,335.733 221.593,337.353 221.330 C 346.417 219.859,335.008 242.306,323.617 248.355 C 304.762 258.367,281.557 244.343,263.595 212.080 C 261.511 208.337,260.934 207.581,260.239 207.680 C 258.172 207.975,259.364 223.735,262.192 233.487 C 263.440 237.792,263.451 238.864,262.263 240.244 C 258.497 244.623,255.304 237.987,253.194 221.400 C 252.650 217.122,252.642 196.194,253.181 188.200 C 254.509 168.515,254.602 167.960,256.703 167.161 C 260.045 165.890,261.009 168.068,260.637 176.054 C 260.325 182.749,260.500 183.107,262.420 179.700 C 267.176 171.258,271.445 167.062,276.400 165.960 C 278.463 165.501,281.648 165.880,282.771 166.718 M322.320 166.024 C 322.254 166.213,320.538 166.397,318.507 166.433 C 316.476 166.469,314.902 166.641,315.009 166.814 C 315.116 166.987,314.167 167.212,312.902 167.313 C 311.636 167.414,309.970 167.596,309.200 167.716 C 308.430 167.836,306.614 168.050,305.165 168.192 C 302.609 168.442,300.000 169.554,300.000 170.394 C 300.000 170.617,299.751 170.800,299.446 170.800 C 298.607 170.800,297.600 173.289,297.600 175.360 C 297.600 176.372,297.420 177.200,297.200 177.200 C 296.971 177.200,296.800 178.408,296.800 180.024 C 296.800 181.804,296.652 182.756,296.400 182.600 C 296.143 182.441,296.000 183.863,296.000 186.576 C 296.000 189.125,295.841 190.800,295.600 190.800 C 295.344 190.800,295.200 194.525,295.200 201.176 C 295.200 207.663,295.350 211.645,295.600 211.800 C 295.820 211.936,296.000 212.397,296.000 212.824 C 296.000 213.251,296.180 213.600,296.400 213.600 C 296.620 213.600,296.800 213.900,296.800 214.266 C 296.800 215.192,298.079 218.000,298.501 218.000 C 298.691 218.000,298.742 218.171,298.613 218.379 C 298.333 218.831,301.803 222.400,302.522 222.400 C 302.798 222.400,303.283 222.760,303.600 223.200 C 303.917 223.640,304.497 224.000,304.888 224.000 C 305.280 224.000,305.600 224.180,305.600 224.400 C 305.600 224.620,306.241 224.800,307.024 224.800 C 307.871 224.800,308.347 224.962,308.200 225.200 C 308.041 225.457,309.470 225.600,312.200 225.600 C 314.930 225.600,316.359 225.457,316.200 225.200 C 316.060 224.973,316.396 224.800,316.976 224.800 C 317.539 224.800,318.000 224.620,318.000 224.400 C 318.000 224.180,318.272 224.000,318.605 224.000 C 319.206 224.000,320.816 223.227,321.200 222.754 C 321.310 222.619,321.805 222.381,322.300 222.227 C 322.795 222.072,323.200 221.778,323.200 221.573 C 323.200 221.368,323.440 221.200,323.734 221.200 C 324.027 221.200,326.188 219.310,328.534 217.000 C 330.881 214.690,332.981 212.800,333.201 212.800 C 333.420 212.800,333.600 212.530,333.600 212.200 C 333.600 211.870,333.870 211.600,334.200 211.600 C 334.530 211.600,334.800 211.448,334.800 211.262 C 334.800 211.076,335.229 210.425,335.754 209.815 C 339.143 205.870,335.729 197.600,330.711 197.600 C 329.366 197.600,329.200 197.490,329.200 196.600 C 329.200 196.050,329.343 195.600,329.518 195.600 C 329.693 195.600,329.880 194.955,329.933 194.167 C 329.994 193.260,329.877 192.829,329.615 192.991 C 329.365 193.145,329.200 192.789,329.200 192.096 C 329.200 190.809,327.494 188.645,325.779 187.755 C 324.619 187.153,317.398 186.956,317.052 187.516 C 316.944 187.690,316.177 187.878,315.347 187.934 C 314.518 187.990,313.628 188.211,313.370 188.425 C 312.304 189.309,311.668 188.390,311.533 185.769 L 311.400 183.198 312.900 183.199 C 313.725 183.200,314.400 183.036,314.400 182.836 C 314.400 182.372,318.106 182.071,324.065 182.051 C 326.860 182.042,328.834 181.868,328.989 181.618 C 329.131 181.388,329.597 181.200,330.024 181.200 C 330.451 181.200,330.800 181.020,330.800 180.800 C 330.800 180.580,331.044 180.400,331.342 180.400 C 332.112 180.400,334.010 178.006,334.276 176.700 C 334.399 176.095,334.658 175.600,334.850 175.600 C 335.043 175.600,335.200 174.779,335.200 173.776 C 335.200 172.663,335.044 172.049,334.800 172.200 C 334.567 172.344,334.400 171.937,334.400 171.221 C 334.400 169.526,331.272 166.400,329.576 166.400 C 328.929 166.400,328.400 166.238,328.400 166.040 C 328.400 165.580,322.480 165.564,322.320 166.024 M348.187 165.979 C 348.338 166.224,348.089 166.400,347.591 166.400 C 346.392 166.400,343.334 169.012,343.006 170.316 C 342.561 172.081,342.455 177.595,342.839 178.935 C 343.035 179.618,343.209 182.569,343.226 185.494 C 343.245 188.653,343.408 190.718,343.629 190.582 C 343.850 190.446,344.000 192.476,344.000 195.600 C 344.000 198.996,344.141 200.760,344.400 200.600 C 344.657 200.441,344.810 201.969,344.828 204.876 C 344.846 207.776,344.980 209.113,345.200 208.600 C 345.422 208.084,345.554 209.325,345.572 212.100 C 345.589 214.681,345.760 216.400,346.000 216.400 C 346.231 216.400,346.400 217.667,346.400 219.400 C 346.400 221.050,346.568 222.400,346.773 222.400 C 346.977 222.400,347.271 223.844,347.425 225.609 C 347.579 227.374,347.861 228.914,348.052 229.032 C 348.244 229.151,348.400 229.967,348.400 230.847 C 348.400 231.812,348.559 232.349,348.800 232.200 C 349.051 232.045,349.200 232.918,349.200 234.543 C 349.200 235.968,349.370 237.193,349.578 237.267 C 349.786 237.340,349.997 238.336,350.048 239.480 C 350.099 240.624,350.289 241.468,350.471 241.356 C 350.652 241.244,350.800 241.973,350.800 242.976 C 350.800 243.979,350.980 244.800,351.200 244.800 C 351.420 244.800,351.600 245.070,351.600 245.400 C 351.600 245.730,351.767 246.000,351.972 246.000 C 352.177 246.000,352.402 246.387,352.472 246.859 C 352.542 247.332,352.957 247.917,353.394 248.159 C 353.831 248.402,354.482 248.915,354.841 249.300 C 355.583 250.096,363.200 250.369,363.200 249.600 C 363.200 249.380,363.740 249.200,364.400 249.200 C 365.060 249.200,365.600 249.020,365.600 248.800 C 365.600 248.580,366.035 248.400,366.567 248.400 C 367.098 248.400,367.597 248.210,367.674 247.978 C 367.751 247.746,368.089 247.516,368.424 247.467 C 368.759 247.418,369.711 246.978,370.539 246.489 C 371.368 246.000,372.215 245.600,372.423 245.600 C 372.630 245.600,372.800 245.420,372.800 245.200 C 372.800 244.980,373.036 244.800,373.325 244.800 C 373.613 244.800,374.236 244.440,374.708 244.000 C 375.180 243.560,375.711 243.200,375.887 243.200 C 376.064 243.200,376.693 242.750,377.287 242.200 C 377.880 241.650,378.567 241.200,378.814 241.200 C 379.342 241.200,382.400 238.103,382.400 237.567 C 382.400 237.365,382.760 237.200,383.200 237.200 C 383.640 237.200,384.000 237.002,384.000 236.760 C 384.000 236.519,384.508 235.844,385.129 235.260 C 385.750 234.677,386.605 233.660,387.029 233.000 C 387.453 232.340,388.217 231.325,388.726 230.745 C 389.797 229.525,390.864 227.754,392.066 225.200 C 392.532 224.210,393.023 223.310,393.157 223.200 C 393.690 222.762,394.400 221.165,394.400 220.405 C 394.400 219.962,394.580 219.600,394.800 219.600 C 395.020 219.600,395.200 219.240,395.200 218.800 C 395.200 218.360,395.380 218.000,395.600 218.000 C 395.820 218.000,396.000 217.471,396.000 216.824 C 396.000 216.177,396.160 215.549,396.355 215.428 C 396.741 215.189,397.385 212.506,397.249 211.700 C 397.203 211.425,397.353 211.200,397.582 211.200 C 397.812 211.200,398.000 210.585,398.000 209.833 C 398.000 209.082,398.164 208.407,398.364 208.333 C 398.565 208.260,398.783 207.480,398.850 206.600 C 398.916 205.720,399.157 204.872,399.385 204.715 C 399.942 204.331,399.956 183.282,399.400 182.885 C 399.180 182.728,398.940 181.970,398.867 181.200 C 398.795 180.430,398.570 179.629,398.367 179.420 C 398.165 179.211,398.000 178.637,398.000 178.144 C 398.000 177.651,397.834 177.145,397.631 177.019 C 397.428 176.894,397.143 176.253,396.999 175.595 C 396.855 174.938,396.571 174.400,396.368 174.400 C 396.166 174.400,396.000 174.146,396.000 173.836 C 396.000 172.802,390.105 167.200,389.017 167.200 C 388.678 167.200,388.400 167.020,388.400 166.800 C 388.400 166.580,387.770 166.400,387.000 166.400 C 386.230 166.400,385.600 166.242,385.600 166.048 C 385.600 165.854,383.710 165.665,381.400 165.629 C 378.695 165.585,377.200 165.711,377.200 165.981 C 377.200 166.211,376.480 166.400,375.600 166.400 C 374.720 166.400,374.000 166.580,374.000 166.800 C 374.000 167.020,373.740 167.200,373.421 167.200 C 372.645 167.200,369.220 169.042,368.181 170.018 C 367.723 170.448,367.206 170.800,367.031 170.800 C 366.588 170.800,362.498 175.166,361.692 176.500 C 361.327 177.105,360.886 177.600,360.714 177.600 C 360.541 177.600,360.400 177.793,360.400 178.029 C 360.400 178.264,360.125 178.732,359.789 179.068 C 358.647 180.210,358.090 179.070,357.939 175.284 C 357.751 170.573,355.490 166.402,353.124 166.400 C 352.752 166.400,352.356 166.253,352.245 166.072 C 352.133 165.892,351.116 165.703,349.984 165.651 C 348.624 165.589,348.015 165.700,348.187 165.979 M325.900 166.276 C 325.515 166.376,324.885 166.376,324.500 166.276 C 324.115 166.175,324.430 166.093,325.200 166.093 C 325.970 166.093,326.285 166.175,325.900 166.276 M352.256 171.674 C 353.457 172.772,354.106 177.814,355.025 193.200 C 355.308 197.924,355.713 199.949,356.146 198.800 C 356.271 198.470,357.023 196.231,357.819 193.824 C 363.283 177.292,374.768 167.820,385.489 171.004 C 399.565 175.184,399.204 207.706,384.855 228.200 C 378.671 237.031,366.041 245.600,359.207 245.600 C 356.190 245.600,355.428 244.334,354.389 237.600 C 354.134 235.950,353.304 231.720,352.544 228.200 C 350.714 219.722,349.810 212.069,348.599 194.800 C 348.268 190.070,347.717 183.259,347.375 179.665 C 346.805 173.670,346.807 173.049,347.400 172.144 C 348.608 170.301,350.548 170.113,352.256 171.674 M329.346 171.629 C 330.044 172.178,330.400 172.843,330.400 173.596 C 330.400 176.347,329.276 176.990,323.800 177.375 C 320.316 177.619,317.478 177.968,310.104 179.057 C 309.172 179.195,308.240 179.510,308.035 179.758 C 307.653 180.218,306.459 192.778,306.722 193.566 C 306.945 194.234,308.395 194.102,315.543 192.761 C 322.914 191.379,324.470 191.548,325.033 193.789 C 325.914 197.301,324.114 198.096,310.000 200.431 C 305.835 201.120,305.864 201.083,306.093 205.459 C 306.400 211.325,308.516 214.480,312.143 214.480 C 314.340 214.480,316.349 213.130,322.332 207.634 C 328.534 201.938,329.754 201.354,331.600 203.200 C 333.781 205.381,332.469 207.472,324.400 214.678 C 317.203 221.105,312.497 222.521,307.114 219.878 C 300.512 216.635,298.631 210.458,299.780 195.786 C 301.653 171.856,300.882 173.839,308.800 172.613 C 322.192 170.538,327.629 170.278,329.346 171.629 M276.200 173.028 C 271.118 175.666,258.847 198.898,261.628 200.617 C 263.785 201.950,273.845 192.665,276.981 186.447 C 281.360 177.765,280.941 170.567,276.200 173.028 M91.230 175.832 L 92.200 176.864 92.592 190.932 C 93.547 225.221,93.344 226.800,87.989 226.800 C 83.643 226.800,78.379 220.886,72.552 209.457 C 68.907 202.307,68.905 202.310,68.261 215.435 C 67.723 226.406,67.533 227.341,65.702 228.037 C 63.838 228.746,62.262 227.670,61.467 225.146 C 60.661 222.589,62.498 201.092,64.043 195.000 C 65.771 188.181,66.033 187.502,67.264 186.640 C 70.343 184.484,73.042 187.187,71.937 191.320 C 71.487 193.001,71.534 193.171,73.486 197.026 C 80.466 210.814,84.982 218.274,86.118 217.893 C 86.718 217.692,86.713 213.734,86.089 193.622 C 85.833 185.384,85.732 178.184,85.864 177.622 C 86.515 174.857,89.408 173.892,91.230 175.832 M378.717 177.361 C 371.576 179.283,365.324 188.929,362.151 202.920 C 359.204 215.915,358.540 224.767,360.000 231.600 C 360.440 233.659,360.800 235.727,360.800 236.195 C 360.800 242.032,374.692 232.073,381.351 221.462 C 386.795 212.787,390.384 197.452,389.048 188.572 C 387.576 178.783,384.766 175.733,378.717 177.361 M275.600 179.551 C 275.600 179.744,275.330 180.126,275.000 180.400 C 274.349 180.941,274.267 180.811,274.643 179.833 C 274.900 179.163,275.600 178.957,275.600 179.551 M124.081 181.586 C 128.221 183.532,129.979 185.937,128.986 188.298 C 127.960 190.737,124.930 190.867,122.766 188.563 C 119.424 185.007,113.014 187.657,109.849 193.903 C 102.465 208.475,112.777 225.395,122.391 214.480 C 125.871 210.529,126.024 210.400,127.243 210.400 C 130.175 210.400,131.186 213.414,129.263 216.422 C 122.232 227.416,108.512 226.878,103.140 215.396 C 94.972 197.942,109.383 174.677,124.081 181.586 M358.794 181.500 C 358.776 182.377,358.012 182.959,358.006 182.100 C 358.003 181.605,358.180 181.200,358.400 181.200 C 358.620 181.200,358.797 181.335,358.794 181.500 M383.125 183.500 C 383.194 184.215,383.419 184.800,383.625 184.800 C 383.831 184.800,383.979 184.935,383.953 185.100 C 383.766 186.282,384.064 188.008,384.417 187.789 C 384.700 187.614,384.816 189.343,384.778 193.166 C 384.747 196.265,384.559 198.800,384.361 198.800 C 384.162 198.800,384.000 199.580,384.000 200.533 C 384.000 201.487,383.876 202.390,383.725 202.541 C 383.165 203.101,382.137 207.999,382.573 208.032 C 382.808 208.049,382.775 208.154,382.500 208.265 C 382.225 208.376,382.000 208.812,382.000 209.233 C 382.000 209.655,381.820 210.000,381.600 210.000 C 381.380 210.000,381.200 210.720,381.200 211.600 C 381.200 212.480,381.048 213.200,380.863 213.200 C 380.468 213.200,378.553 216.813,378.700 217.281 C 378.755 217.457,378.620 217.600,378.400 217.600 C 378.180 217.600,378.000 217.780,378.000 217.999 C 378.000 218.219,377.370 219.275,376.600 220.347 C 375.830 221.419,375.200 222.510,375.200 222.771 C 375.200 223.033,375.020 223.136,374.800 223.000 C 374.580 222.864,374.400 223.014,374.400 223.334 C 374.400 223.653,374.128 224.019,373.797 224.146 C 373.465 224.273,372.986 224.833,372.732 225.389 C 372.479 225.945,372.056 226.400,371.792 226.400 C 371.528 226.400,370.644 227.030,369.827 227.800 C 369.011 228.570,368.210 229.200,368.047 229.200 C 367.884 229.200,367.394 229.533,366.957 229.939 C 365.265 231.516,364.000 231.041,364.000 228.829 C 364.000 228.153,363.820 227.600,363.600 227.600 C 363.378 227.600,363.200 226.533,363.200 225.200 C 363.200 223.867,363.378 222.800,363.600 222.800 C 363.839 222.800,364.000 221.259,364.000 218.976 C 364.000 216.529,364.144 215.242,364.400 215.400 C 364.650 215.554,364.800 214.737,364.800 213.224 C 364.800 211.891,364.948 210.800,365.129 210.800 C 365.309 210.800,365.500 209.859,365.552 208.709 C 365.605 207.559,365.809 206.518,366.005 206.397 C 366.202 206.275,366.408 205.506,366.463 204.688 C 366.518 203.870,366.681 203.200,366.825 203.200 C 366.968 203.200,367.203 202.075,367.347 200.700 C 367.490 199.325,367.786 198.140,368.004 198.067 C 368.222 197.993,368.400 197.408,368.400 196.767 C 368.400 196.125,368.580 195.600,368.800 195.600 C 369.020 195.600,369.200 195.150,369.200 194.600 C 369.200 194.050,369.346 193.600,369.525 193.600 C 369.704 193.600,370.098 192.970,370.400 192.200 C 370.702 191.430,371.096 190.800,371.275 190.800 C 371.454 190.800,371.600 190.517,371.600 190.171 C 371.600 189.826,371.870 189.273,372.200 188.943 C 372.530 188.613,372.800 187.996,372.800 187.571 C 372.800 187.147,372.984 186.800,373.209 186.800 C 373.434 186.800,374.559 185.836,375.709 184.658 C 378.179 182.127,378.399 182.022,381.000 182.122 C 382.945 182.198,383.003 182.235,383.125 183.500 M241.108 183.429 C 248.568 187.147,248.722 198.604,241.527 214.600 C 236.981 224.707,232.239 228.859,225.900 228.284 C 218.529 227.616,215.635 217.846,218.123 202.029 C 220.297 188.203,231.880 178.830,241.108 183.429 M232.904 189.823 C 226.606 192.962,222.480 205.301,224.005 216.440 C 225.307 225.943,230.588 223.226,236.361 210.083 C 242.697 195.657,241.012 185.783,232.904 189.823 M269.181 190.623 C 268.474 191.474,268.245 191.038,268.871 190.035 C 269.160 189.571,269.460 189.380,269.537 189.610 C 269.613 189.839,269.453 190.295,269.181 190.623 M131.572 192.353 C 131.077 193.022,130.507 193.466,130.304 193.340 C 130.101 193.215,130.431 192.594,131.038 191.960 C 132.431 190.507,132.758 190.748,131.572 192.353 M235.661 196.528 C 235.447 196.788,235.221 197.900,235.160 199.000 C 235.055 200.902,234.935 201.338,234.000 203.195 C 233.780 203.632,233.600 204.352,233.600 204.795 C 233.600 205.238,233.450 205.600,233.267 205.600 C 233.083 205.600,232.914 205.825,232.890 206.100 C 232.866 206.375,232.760 206.960,232.654 207.400 C 232.548 207.840,232.447 208.436,232.431 208.724 C 232.414 209.012,232.220 209.136,232.000 209.000 C 231.772 208.859,231.600 209.204,231.600 209.800 C 231.600 210.396,231.428 210.741,231.200 210.600 C 230.973 210.460,230.800 210.796,230.800 211.376 C 230.800 211.939,230.620 212.400,230.400 212.400 C 230.180 212.400,230.000 212.670,230.000 213.000 C 230.000 213.330,229.848 213.600,229.661 213.600 C 229.475 213.600,229.127 214.005,228.888 214.500 C 228.551 215.200,228.448 214.261,228.427 210.276 C 228.410 206.956,228.541 205.240,228.800 205.400 C 229.041 205.549,229.200 205.015,229.200 204.057 C 229.200 203.182,229.384 202.405,229.609 202.330 C 229.833 202.256,230.042 201.528,230.073 200.713 C 230.103 199.899,230.280 199.326,230.464 199.440 C 230.649 199.554,230.800 199.277,230.800 198.824 C 230.800 198.371,230.980 198.000,231.200 198.000 C 231.420 198.000,231.600 197.752,231.600 197.449 C 231.600 196.797,234.338 193.814,235.200 193.527 C 235.915 193.289,236.295 195.762,235.661 196.528 M321.600 202.800 C 320.824 203.301,320.400 203.301,320.400 202.800 C 320.400 202.580,320.805 202.403,321.300 202.406 C 322.028 202.411,322.085 202.486,321.600 202.800 M319.600 203.452 C 319.600 203.830,316.262 207.200,315.888 207.200 C 315.709 207.200,315.114 207.650,314.564 208.200 C 314.014 208.750,313.201 209.200,312.758 209.200 C 312.225 209.200,312.051 209.369,312.245 209.700 C 312.406 209.975,312.147 209.857,311.669 209.438 C 311.032 208.880,310.800 208.220,310.800 206.971 C 310.800 205.982,310.590 205.182,310.300 205.065 C 310.025 204.954,310.655 204.849,311.700 204.832 C 312.745 204.814,313.600 204.620,313.600 204.400 C 313.600 204.180,314.410 204.000,315.400 204.000 C 316.390 204.000,317.200 203.820,317.200 203.600 C 317.200 203.380,317.740 203.200,318.400 203.200 C 319.060 203.200,319.600 203.313,319.600 203.452 M97.977 214.124 C 97.990 214.522,97.820 214.736,97.600 214.600 C 97.380 214.464,97.221 213.418,97.246 212.276 L 97.292 210.200 97.623 211.800 C 97.805 212.680,97.964 213.726,97.977 214.124 M57.554 219.500 C 57.526 224.255,57.389 226.781,57.208 225.846 C 56.926 224.383,57.149 211.600,57.457 211.600 C 57.536 211.600,57.579 215.155,57.554 219.500 " stroke="none" fill="#f8f8f9" fill-rule="evenodd"></path></g></svg>